<svg xmlns="http://www.w3.org/2000/svg" width="580" height="580" viewBox="0 0 1080 1080" xml:space="preserve"><g transform="translate(540 540)"/><g transform="translate(540 540)"/><path style="stroke:none;stroke-width:1;stroke-dasharray:none;stroke-linecap:butt;stroke-dashoffset:0;stroke-linejoin:miter;stroke-miterlimit:4;fill:#fff;fill-rule:nonzero;opacity:1" vector-effect="non-scaling-stroke" transform="translate(394.5 457.34)" d="M0 0c2.899.118 5.167-.242 7.98-.879C18.28-1.807 28.485.147 36.895 6.34c5.808 4.96 9.87 10.206 13.398 16.969 3.113 5.603 6.13 7.653 11.84 10.332 9.483 4.93 16.125 13.164 19.66 23.105 2.165 7.94 1.637 16.34.625 24.438-.4 3.601-.153 5.496.562 8.937.845 10.184.063 20.35-6.058 28.863a101 101 0 0 1-6.942 7.137l-1.601 1.55c-3.764 3.397-10.119 8.45-15.399 8.45-.25.875-.502 1.75-.761 2.652-3.84 10.38-12.467 19.333-22.239 24.348-10.168 4.439-21.237 3.588-32.011 2.121-2.2-.258-2.2-.258-4.989.88-12.042.91-23.453-.194-33.125-8.173-5.953-5.804-10.601-12.19-13.875-19.828v-2l-1.707-.34c-8.936-2.573-18.377-9.84-23.152-17.734-5.265-10.392-5.265-10.392-5.273-16.2l-.004-2.5.011-2.6-.011-2.579c.006-4.187.29-7.939 1.136-12.047l-1-3c-1.17-12.64-.415-23.943 6.938-34.625 5.183-6.226 12.719-11.949 20.406-14.473l2.656-.902c.74-1.974 1.388-3.983 2-6 3.623-5.983 7.757-11.366 13-16h2v-2C-24.673-1.614-13.748-1.356 0 0m14.98 10.121 1.426 2.23 1.887 2.958 1.863 2.918c1.824 2.894 1.824 2.894 3.043 5.738 1.725 2.588 1.725 2.588 5.574 2.644a129 129 0 0 0 4.395-.175l2.271-.069a279 279 0 0 0 5.541-.244c-3.057-6.56-8.554-11.188-15.242-13.914-3.853-1.352-6.61-2.086-10.758-2.086m-46.156 4.07c-4.942 2.87-8.397 6.4-11.844 10.93 3.56 1.187 6.439 1.097 10.188 1.063l3.855-.028 2.957-.035 1.688-3.562c2.064-4.15 4.535-7.734 7.312-11.438-5.053-1.684-9.532.775-14.156 3.07m14.031 6.618c-2.139 2.226-2.872 3.304-3.875 6.312l2.485 1.242 13.515 6.758v2c2.464 1.645 2.464 1.645 5 3l1.618-1.574c5.379-5.035 10.63-8.494 17.382-11.426-2.19-6.419-6.565-10.132-12.457-13.336-9.466-4.312-16.366-.11-23.668 7.024m-23.062 10.687-2.48.774c-5.064 1.77-5.064 1.77-8.02 6.164-1.664 4.675-2.354 8.416-2.332 13.351l.008 2.46.011 1.876 3.692-.219 4.871-.28 2.424-.145 2.392-.137 2.174-.127c3.147-.118 6.298-.092 9.447-.092v-25c-6.398-.035-6.398-.035-12.187 1.375m66.187-1.375.5 3.5c.814 7.139.58 14.327.5 21.5l2.676-.035c7.51-.057 14.862.182 22.324 1.035-.283-7.468-1.077-14.484-5-21-2.666-2.167-2.666-2.167-6-3l-1.917-.605c-4.458-1.285-8.458-1.588-13.083-1.395m-5 1-1.644 1.242c-.715.54-1.43 1.078-2.168 1.633l-2.145 1.617a129 129 0 0 1-5.043 3.508v2l-10 2-1-2v2c-7.256-.958-11.113-4.237-16.484-9.101-2.522-2.3-2.522-2.3-6.516-1.899-1.19 13.813-1.19 13.813 4 26 2.107 1.214 4.181 2.02 6.473 2.828C-8.606 63.24-4.879 67.35-1.02 71.121a418 418 0 0 0 3.5-2.875l1.97-1.617 1.53-1.508v-2l2-.75 3-1.25 2.008-.812c3.677-1.628 5.637-2.66 7.93-6.063 2.215-6.516 2.697-13.271 2.062-20.125zm-81 10v2l-1.808.774c-6.191 3.465-9.27 10.713-11.192 17.226a88 88 0 0 0 0 5l2.012-1.242 2.676-1.633 2.637-1.617c2.675-1.508 2.675-1.508 7.675-3.508v-17zm116 0c-1.097 8.043-1.097 8.043 0 16 3.538 3.516 7.45 5.096 12 7 2.391 1.668 2.391 1.668 4 3-.26-7.965-2.874-13.25-7-20h-2l-1-3c-2.635-2.41-2.635-2.41-6-3m-108 19v3h2l.317 1.816c.787 2.513 1.669 3.398 3.621 5.122 2.62 2.506 4.226 4.436 5.062 8.062a76 76 0 0 1-1 5l1 3c-.558 2.262-.558 2.262-1.437 4.688l-.871 2.449-.692 1.863h-2v2h-2c-3.195 4.066-3.195 4.066-4 9 13.61 1.156 13.61 1.156 26-3 1.318-2.114 2.141-4.17 2.973-6.516 2.31-5.586 6.713-10.313 11.027-14.484l-1.503-1.074c-5.822-4.562-8.621-9.43-11.66-16.133-1.616-2.972-1.616-2.972-4.57-4.137-3.65-.733-7.176-1.116-10.892-1.343l-3.914-.262c-2.813-.041-4.83.06-7.46.95m77 2c-1.553 2.611-1.553 2.611-2.937 5.75-2.82 6.107-6.232 10.592-11.063 15.25l1.54 1.328c4.359 4.017 7.04 7.517 9.398 12.985 2.366 5.08 2.366 5.08 6.937 7.937 6.83 1.516 14.175.98 21.125.75-.503-4.44-2.017-6.49-5-9.75-3.984-4.805-5.28-8.065-5-14.25l-.058-2.058c.16-5.493 2.62-8.183 6.336-12.043 2.237-2.466 3.428-4.852 4.722-7.899-8.999-1.31-17.325-.892-26 2m30 0-1.066 2.344c-3.22 6.793-6.627 12.318-11.934 17.656 1.356 2.537 1.356 2.537 3 5h2l8 16c7.606-4.383 12.992-9.473 15.72-18.031.56-5.914-2.312-10.334-5.72-14.969-2.792-2.971-5.682-5.625-9-8zm-115.562 2.375-1.941 1.336c-.494.425-.988.85-1.497 1.29v2h-2a344 344 0 0 0-3.062 5.624l-1.723 3.164c-1.635 4.322-.938 7.025.477 11.3 2.625 5.569 6.291 9.357 11.308 12.911l3 1 .665-1.687c2.408-5.797 5.419-10.435 9.335-15.313a717 717 0 0 0 3-4l-2.187-2.062c-5.325-5.371-8.425-10.775-10.813-17.938-1.806 0-3.126 1.371-4.562 2.375M-2.02 82.121l2 2 1-2zm1 12-1.937 2.625c-3.99 4.91-9.835 8.245-15.762 10.32-2.354.849-2.354.849-3.445 2.657-2.537 7.686-2.12 15.404-1.856 23.398l2 1c3.446-2.185 6.345-4.323 9.25-7.187 5.013-4.402 10.598-3.875 16.938-3.75 3.541 1.18 5.625 3.103 8.297 5.66 1.44 1.492 1.44 1.492 3.515 1.277v2l6 2c2.64-7.921.964-16.366-1.714-24.05-1.828-2.773-3.944-3.408-6.973-4.7-5.304-2.486-8.55-5.092-12.105-9.71L-.02 94.12zm-73 4c1.24 10.049 5.292 18.333 13 25l3 2c1.104-8.542 1.104-8.542 0-17-3.523-3.594-7.395-5.127-12-7-2.39-1.664-2.39-1.664-4-3m145 1-1.757 1.207-2.368 1.606-2.32 1.582c-2.742 1.723-5.658 3.157-8.555 4.605v17c7.953-5.302 12.76-10.821 15.688-19.957.352-2.303.024-3.843-.688-6.043m-124 11c-.04 7.18-.04 7.18 1.313 13.813l.738 2.77c1.018 2.591 1.729 3.762 3.95 5.417 2.444 1.012 2.444 1.012 5.187 1.688l2.73.761c3.873.786 3.873.786 11.082.551v-25zm100.938-.5c-6.925.902-13.969.576-20.938.5l.036 3.184c.056 7.355.007 14.517-1.036 21.816 6.857.337 13.709.022 20-3 2.598-3.396 3.685-6.815 4.688-10.937l.762-3.028c.559-3.08.648-5.911.55-9.035-1.364 0-2.715.28-4.062.5m-48.938 15.5-1.503 1.39c-5.72 5.167-11.187 8.952-18.497 11.61 1.528 3.438 3.502 6.19 6 9h2v2c6.201 3.7 6.201 3.7 13.125 5.063 8.835-3.265 14.072-7.54 19.875-15.063-2.605-1.737-5.05-2.995-7.875-4.312-4.255-2.085-6.956-4.223-10.125-7.688h-2zm-42 15c6.166 7.905 13.853 14.187 24 16l3-1c-1.363-2.04-1.363-2.04-3-4h-2l-.812-2.125c-1.249-3.023-2.725-5.95-4.188-8.875zm67 0-2.187 4.625c-2.173 4.37-4.516 7.796-7.813 11.375 7.65-.958 13.514-2.804 20-7v-2l1.813-.687c2.802-1.448 2.802-1.448 5.187-6.313z"/><path style="stroke:none;stroke-width:1;stroke-dasharray:none;stroke-linecap:butt;stroke-dashoffset:0;stroke-linejoin:miter;stroke-miterlimit:4;fill:#fff;fill-rule:nonzero;opacity:1" vector-effect="non-scaling-stroke" transform="translate(368.49 490.46)" d="M0 0h1l.078 2.71c.4 11.234.4 11.234 4.922 21.29 2.105 1.302 4.132 2.065 6.473 2.863C17.433 29.094 21.148 33.237 25 37l2.375-2.5C30 32 30 32 32 32v-2a595 595 0 0 1 5.813-3.062l3.269-1.723C44 24 44 24 47 25c2.167-.875 2.167-.875 4-2 .784 8.47-2.292 14.906-7.625 21.438A182 182 0 0 1 38 50l1.715 1.61 2.222 2.14 2.215 2.11C46.028 58.031 46.756 59.166 47 62c-1.312 2.75-1.312 2.75-3 5h-2l-.812-1.937C40.113 62.669 40.113 62.669 37 62l-4 4c-5.75-1.75-5.75-1.75-8-4l-1.875 2.625C18.561 70.115 12.046 73.93 5 75l-.402 1.934c-.177.826-.354 1.652-.535 2.504l-.528 2.496C3 84 3 84 2 85a236 236 0 0 0-1 7l-3 1c-1.442-2.884-1.094-5.417-1.062-8.625l.027-3.602L-3 78l-3.07.07q-2.027.029-4.055.055c-.665.017-1.33.034-2.016.05C-16.495 78.219-19.956 77.6-24 76l1-2c2.74-.62 5.418-1.127 8.188-1.562l2.29-.381Q-9.261 71.519-6 71q3-.498 6-1l.25-2.062C1.951 61.275 6.227 55.828 11 51l2-1-1.54-1.328c-5.27-4.857-8.14-9.5-10.843-16.133-1.423-2.711-1.423-2.711-4.148-3.82-4.598-.953-9.17-1.437-13.844-1.844l-2.809-.262Q-23.59 26.297-27 26c.782-1.962.782-1.962 2-4a48.4 48.4 0 0 1 7.75-.75l2.133-.09c4.039-.158 8.075-.185 12.117-.16l-.07-2.09C-3.19 12.706-2.895 6.948-1 1zm24 49 2 2 1-2z"/><path style="stroke:none;stroke-width:1;stroke-dasharray:none;stroke-linecap:butt;stroke-dashoffset:0;stroke-linejoin:miter;stroke-miterlimit:4;fill:#fff;fill-rule:nonzero;opacity:1" vector-effect="non-scaling-stroke" transform="translate(573.49 557.46)" d="M0 0h17c3.08 12.188 3.08 12.188 4 17l.84-3.21 1.098-4.165.552-2.117C24.887 2.227 24.887 2.227 26 0h16v40H31l-1-20c-1.276 6.207-1.276 6.207-2.543 12.416l-.484 2.33-.492 2.396C26 39 26 39 25 40c-1.497.098-3 .13-4.5.125l-2.469.008C16 40 16 40 15 39c-.393-1.679-.74-3.369-1.062-5.062l-.536-2.786L13 29l-.184 2.152-.254 2.785-.246 2.778C12 39 12 39 11 40c-1.664.098-3.333.13-5 .125l-2.75.008C1 40 1 40 0 39a234 234 0 0 1-.098-8.629l.005-2.619c.005-2.771.018-5.543.03-8.314l.014-5.624C-.039 9.21-.019 4.604 0 0"/><path style="stroke:none;stroke-width:1;stroke-dasharray:none;stroke-linecap:butt;stroke-dashoffset:0;stroke-linejoin:miter;stroke-miterlimit:4;fill:#fff;fill-rule:nonzero;opacity:1" vector-effect="non-scaling-stroke" transform="translate(620.49 557.46)" d="M0 0h18c3.429 11.571 3.429 11.571 3 18h2l.367-1.906A273 273 0 0 1 27 0h16v40H32l-1-21c-1.276 6.536-1.276 6.536-2.543 13.074l-.484 2.453-.492 2.524C27 39 27 39 26 40c-1.52.072-3.042.084-4.562.063l-2.504-.028L17 40c-1.054-3.655-2.093-7.305-3-11l-.184 2.152-.254 2.785-.246 2.778C13 39 13 39 12 40c-1.664.098-3.333.13-5 .125l-2.75.008C2 40 2 40 1 39c-.16-2.883-.26-5.744-.316-8.629L.62 27.752q-.098-4.157-.183-8.314l-.131-5.624C.199 9.21.1 4.604 0 0"/><path style="stroke:none;stroke-width:1;stroke-dasharray:none;stroke-linecap:butt;stroke-dashoffset:0;stroke-linejoin:miter;stroke-miterlimit:4;fill:#fff;fill-rule:nonzero;opacity:1" vector-effect="non-scaling-stroke" transform="translate(677.49 487.46)" d="M0 0h15c3.09 6.013 5.606 11.616 8 18V0h12v39H21c-5.875-12.625-5.875-12.625-7-16l-.184 3.246-.254 4.192-.119 2.142c-.33 5.307-.33 5.307-1.443 6.42H0z"/><path style="stroke:none;stroke-width:1;stroke-dasharray:none;stroke-linecap:butt;stroke-dashoffset:0;stroke-linejoin:miter;stroke-miterlimit:4;fill:#fff;fill-rule:nonzero;opacity:1" vector-effect="non-scaling-stroke" transform="translate(714.17 557.15)" d="m0 0 3.303-.088c6.298-.05 10.28.054 15.01 4.4 2.115 3.654 2.355 6.825 2 11-1 2.376-1 2.376-2 4h-2l2 3c1.403 5.52 2.45 11.299 2 17-1 1-1 1-3.47 1.133l-3.03-.008-3.032.008c-2.469-.133-2.469-.133-3.469-1.133-.396-2.18-.743-4.37-1.062-6.562l-.535-3.629-.402-2.808-5-1 .035 3.027.027 3.91.035 3.902c-.097 3.16-.097 3.16-1.097 4.16-1.853.073-3.709.084-5.563.063l-3.066-.027-2.371-.035a7151 7151 0 0 1-.483-16.608q-.08-2.828-.166-5.654-.121-4.054-.23-8.11l-.082-2.569a194 194 0 0 1-.04-6.06C-10.16-1.215-3.392.03 0 0m.313 9.313v7l7-1v-5z"/><path style="stroke:none;stroke-width:1;stroke-dasharray:none;stroke-linecap:butt;stroke-dashoffset:0;stroke-linejoin:miter;stroke-miterlimit:4;fill:#fff;fill-rule:nonzero;opacity:1" vector-effect="non-scaling-stroke" transform="translate(502.3 557.27)" d="m0 0 3.707-.043c3.307.219 5.52.804 8.48 2.23v2h2c1.877 3.167 2.097 5.359 2 9q-2.437.04-4.875.063l-2.742.035c-2.383-.098-2.383-.098-4.382-1.098v-2h-7c-3.298 7.181-2.967 12.433-1 20 2.94-.184 2.94-.184 6-1 1.436-1.951 1.436-1.951 2-4h-6v-8h18v22h-11l-2 1c-5.713.595-10.099.231-15-3-4.508-3.995-6.785-6.635-7.336-12.68a277 277 0 0 1-.04-4.195l-.074-2.105c-.029-5.188 1.204-8.033 4.45-12.02C-10.043 1.385-6.725.035 0 0"/><path style="stroke:none;stroke-width:1;stroke-dasharray:none;stroke-linecap:butt;stroke-dashoffset:0;stroke-linejoin:miter;stroke-miterlimit:4;fill:#fff;fill-rule:nonzero;opacity:1" vector-effect="non-scaling-stroke" transform="translate(531.11 487.27)" d="m0 0 2.7-.037c11.74-.026 11.74-.026 16.55 3.662 2.705 3.757 2.521 8.127 2.125 12.563l-1.125 2.375c-1.221 3.663-.256 6.344.61 10.042.718 3.599.65 6.924.515 10.583q-2.97.038-5.937.062l-3.34.035c-2.723-.097-2.723-.097-3.723-1.097-.072-2.02-.084-4.042-.062-6.063l.027-3.348.035-2.59-7-1v14h-11a6783 6783 0 0 1-.482-16.18q-.08-2.754-.166-5.509-.122-3.95-.23-7.9l-.083-2.504a182 182 0 0 1-.039-5.906C-8.361-1.076-3.038.002 0 0m1.375 9.188v7c2.917.166 2.917.166 6 0l2-2c-.405-2.783-.405-2.783-2-5q-3-.063-6 0"/><path style="stroke:none;stroke-width:1;stroke-dasharray:none;stroke-linecap:butt;stroke-dashoffset:0;stroke-linejoin:miter;stroke-miterlimit:4;fill:#fff;fill-rule:nonzero;opacity:1" vector-effect="non-scaling-stroke" transform="translate(633.49 490.46)" d="M0 0c3.027 3.71 3 4.993 3 10H-8V7l-6-1 1 3c2.984 1.366 2.984 1.366 6.5 2.5 3.594 1.219 3.594 1.219 6.5 2.5l1 3h2c1.851 3.702 1.465 7.96 1 12-2.14 3.668-4.144 5.38-8 7-7.476 1.4-13.31 1.517-19.75-2.875-2.162-2.042-3.292-3.339-4.25-6.125v-4h12l2 4 5-1 1-3-2.195-.516C-22.9 19.3-22.9 19.3-26.156 14.184-27.713 10.155-27.067 6.11-26 2c6.496-7.198 18.11-6.67 26-2"/><path style="stroke:none;stroke-width:1;stroke-dasharray:none;stroke-linecap:butt;stroke-dashoffset:0;stroke-linejoin:miter;stroke-miterlimit:4;fill:#fff;fill-rule:nonzero;opacity:1" vector-effect="non-scaling-stroke" transform="translate(762.67 558.25)" d="M0 0c2.63 1.719 4.073 3.596 5.816 6.21v5h-11l-1-3h-5v2l11 4v2l1.813.25c2.879.988 3.602 2.18 5.187 4.75.665 3.405.588 6.586 0 10-2.923 4.042-6.312 6.352-11 8-5.299.65-9.566.679-14.437-1.624-2.81-2.604-4.737-5.005-6.563-8.375v-4h12l1 3c1.917.833 1.917.833 4 1l2-1v-4l-2.562-.313c-5.078-1.015-10.9-2.74-14.438-6.687-1.222-5.324-1.355-8.935 1-14C-17.526-2.661-6.556-2.37 0 0"/><path style="stroke:none;stroke-width:1;stroke-dasharray:none;stroke-linecap:butt;stroke-dashoffset:0;stroke-linejoin:miter;stroke-miterlimit:4;fill:#fff;fill-rule:nonzero;opacity:1" vector-effect="non-scaling-stroke" transform="translate(491.49 487.45)" d="M0 0h15c2.716 5.828 4.389 11.723 6 17.938 2.05 7.905 2.05 7.905 4.688 15.628C27 37 27 37 27 39H15l-2-7H3l-.437 2.938C2 38 2 38 1 39a92 92 0 0 1-5.062.063l-2.786-.028L-9 39c-1.556-3.112-.103-5.839.836-9.02l.602-2.107q.962-3.344 1.937-6.686a3875 3875 0 0 0 1.915-6.652 1074 1074 0 0 1 1.199-4.14C-1.51 6.93-.71 3.544 0 0m8 13-2 9h4l-1-9z"/><path style="stroke:none;stroke-width:1;stroke-dasharray:none;stroke-linecap:butt;stroke-dashoffset:0;stroke-linejoin:miter;stroke-miterlimit:4;fill:#fff;fill-rule:nonzero;opacity:1" vector-effect="non-scaling-stroke" transform="translate(648.49 487.46)" d="M0 0q3.688-.08 7.375-.125l2.117-.05C11.33-.194 13.166-.104 15 0c2.61 2.61 2.96 4.821 3.938 8.375l1.054 3.813a508 508 0 0 1 2.57 10.187c.851 3.5 1.817 6.831 3.125 10.188C27 36 27 36 27 39H15l-1-7H3l-1 7h-12c2.206-9.157 4.57-18.232 7.337-27.238C-1.48 7.859-.573 4.039 0 0m8 13-2 9h5l-2-9z"/><path style="stroke:none;stroke-width:1;stroke-dasharray:none;stroke-linecap:butt;stroke-dashoffset:0;stroke-linejoin:miter;stroke-miterlimit:4;fill:#fff;fill-rule:nonzero;opacity:1" vector-effect="non-scaling-stroke" transform="translate(668.49 557.46)" d="M0 0h29v9H13v6h14v9H13v6h17c-.586 6.934-.586 6.934-1 9-2.662 1.33-4.687 1.113-7.664 1.098l-3.398-.01-3.563-.026-3.586-.013Q6.394 40.03 2 40l-.076-3.349q-.142-6.147-.296-12.294-.065-2.66-.125-5.323-.088-3.823-.187-7.647l-.05-2.406C1.179 5.753 1.027 3.082 0 0"/><path style="stroke:none;stroke-width:1;stroke-dasharray:none;stroke-linecap:butt;stroke-dashoffset:0;stroke-linejoin:miter;stroke-miterlimit:4;fill:#fff;fill-rule:nonzero;opacity:1" vector-effect="non-scaling-stroke" transform="translate(523.49 557.46)" d="M0 0q2.969-.04 5.938-.062l3.34-.036C12 0 12 0 13 1c.088 2.146.107 4.294.098 6.441l-.01 3.955-.025 4.166-.014 4.178Q13.029 24.87 13 30h15c.125 7.75.125 7.75-1 10-4.146.029-8.292.047-12.437.063l-3.588.025-3.409.01-3.158.016C2 40 2 40 1 39c-.16-2.883-.26-5.744-.316-8.629L.62 27.752q-.098-4.157-.183-8.314l-.131-5.624Q.146 6.907 0 0"/><path style="stroke:none;stroke-width:1;stroke-dasharray:none;stroke-linecap:butt;stroke-dashoffset:0;stroke-linejoin:miter;stroke-miterlimit:4;fill:#fff;fill-rule:nonzero;opacity:1" vector-effect="non-scaling-stroke" transform="translate(555.48 487.46)" d="M0 0h31v9H21v30H10L9 9H0c-1-4-1-4 0-9"/><path style="stroke:none;stroke-width:1;stroke-dasharray:none;stroke-linecap:butt;stroke-dashoffset:0;stroke-linejoin:miter;stroke-miterlimit:4;fill:#fff;fill-rule:nonzero;opacity:1" vector-effect="non-scaling-stroke" transform="translate(335.49 497.46)" d="M0 0h2l1 15 2-7h1v8l2 1-1 1 4 2H7v3h2l3 5 2.563 2.5c2.474 2.538 3.584 4.088 4.437 7.5a76 76 0 0 1-1 5l1 3c-.777 2.262-.777 2.262-1.937 4.688l-1.153 2.449L15 55h-2v2h-2l-.875 2.25C9.186 61.545 8.109 63.782 7 66h11v1l-8 1v2H6v8H5l-2-7-1 10H1l-.008-2.738C.877 74.746.692 71.452 0 68c-2.841-2.47-2.841-2.47-6-3l1-5c4.75.875 4.75.875 7 2l.813-1.871C5.93 53.389 9.833 48.309 15 43l-1.793-2.02C7.799 34.673 4.047 28.713 1 21l-1-2a68 68 0 0 1-.098-4.352l.01-2.578.025-2.695.014-2.719Q-.03 3.328 0 0"/><path style="stroke:none;stroke-width:1;stroke-dasharray:none;stroke-linecap:butt;stroke-dashoffset:0;stroke-linejoin:miter;stroke-miterlimit:4;fill:#fff;fill-rule:nonzero;opacity:1" vector-effect="non-scaling-stroke" transform="translate(555.49 557.46)" d="M0 0h12v40H1z"/><path style="stroke:none;stroke-width:1;stroke-dasharray:none;stroke-linecap:butt;stroke-dashoffset:0;stroke-linejoin:miter;stroke-miterlimit:4;fill:#fff;fill-rule:nonzero;opacity:1" vector-effect="non-scaling-stroke" transform="translate(588.49 487.46)" d="M0 0h13v39H2V2H0z"/><path style="stroke:none;stroke-width:1;stroke-dasharray:none;stroke-linecap:butt;stroke-dashoffset:0;stroke-linejoin:miter;stroke-miterlimit:4;fill:#fff;fill-rule:nonzero;opacity:1" vector-effect="non-scaling-stroke" transform="translate(371.49 475.46)" d="m0 0 .313 1.875C.875 4.365.875 4.365 4 6v3l2.047.988 2.703 1.325 2.672 1.3C13.835 13.911 15.934 15.2 18 17v2l5 2 1.652-1.61C29.573 14.782 34.368 10.78 41 9l2 1-2 3 3 1a701 701 0 0 1-3.812 2.938l-2.145 1.652C36 20 36 20 33 21v2c-5.628 2.581-10.9 2.665-17 2-3.128-1.535-5.189-3.282-7.77-5.566l-1.855-1.622-1.664-1.542C2.793 14.677 2.793 14.677-1 14v15h-1l-1-13-2 9h-1c-.077-4.516-.102-8.59 1-13l-2-1h5l-.687-2.125C-3.095 5.123-1.864 3.205 0 0"/><path style="stroke:none;stroke-width:1;stroke-dasharray:none;stroke-linecap:butt;stroke-dashoffset:0;stroke-linejoin:miter;stroke-miterlimit:4;fill:#fff;fill-rule:nonzero;opacity:1" vector-effect="non-scaling-stroke" transform="translate(368.49 490.46)" d="M0 0h1l.078 2.71C1.468 13.95 1.468 13.95 6 24c2.863 1.896 5.707 3.057 9 4l-4 5v-2l-4-1v-2l-6 1v2l4 2-3 4-1.758-5.273C-1.728 28.989-3.744 28.778-7 28c-3.45-.494-6.904-.823-10.375-1.125l-2.809-.262Q-23.59 26.297-27 26c.782-1.962.782-1.962 2-4a48.4 48.4 0 0 1 7.75-.75l2.133-.09c4.039-.158 8.075-.185 12.117-.16l-.07-2.09C-3.19 12.706-2.895 6.948-1 1z"/><path style="stroke:none;stroke-width:1;stroke-dasharray:none;stroke-linecap:butt;stroke-dashoffset:0;stroke-linejoin:miter;stroke-miterlimit:4;fill:#fff;fill-rule:nonzero;opacity:1" vector-effect="non-scaling-stroke" transform="translate(405.49 551.46)" d="M0 0c1.938.75 1.938.75 4 2 .75 2.125.75 2.125 1 4l2-2 2-1V1h2c3 5.75 3 5.75 3 8l5 1-2 2c.319 2.108.319 2.108 1 4h-2l.492 2.168C17.786 25.385 17.087 32.797 16 40h-1v-7h-2l-1 2-.367-3.105-.508-4.082-.238-2.042C10.193 20.143 10.193 20.143 8 15c-2.696-1.72-2.696-1.72-5.875-3C-2.531 9.987-5.077 8.18-8 4h6z"/><path style="stroke:none;stroke-width:1;stroke-dasharray:none;stroke-linecap:butt;stroke-dashoffset:0;stroke-linejoin:miter;stroke-miterlimit:4;fill:#fff;fill-rule:nonzero;opacity:1" vector-effect="non-scaling-stroke" transform="translate(414.49 474.46)" d="M0 0c3 4 3 4 4.2 6.133C5.922 8.32 5.922 8.32 9.03 8.32l3.469-.195c6.205-.321 6.205-.321 9.5 1.875l-2 4H7l.5 3.25C8.434 24.748 8.645 32.596 7 40l-8 1 .656-2.352C1.811 30.287 2.35 22.614 2 14h-4l.625-1.625C-.869 9.167-1.846 6.987-3 4h3z"/><path style="stroke:none;stroke-width:1;stroke-dasharray:none;stroke-linecap:butt;stroke-dashoffset:0;stroke-linejoin:miter;stroke-miterlimit:4;fill:#fff;fill-rule:nonzero;opacity:1" vector-effect="non-scaling-stroke" transform="translate(555.48 487.46)" d="M0 0h31v9c-7.045.817-13.91 1.121-21 1l-1 2V9H0c-1-4-1-4 0-9"/><path style="stroke:none;stroke-width:1;stroke-dasharray:none;stroke-linecap:butt;stroke-dashoffset:0;stroke-linejoin:miter;stroke-miterlimit:4;fill:#fff;fill-rule:nonzero;opacity:1" vector-effect="non-scaling-stroke" transform="translate(444.49 518.46)" d="M0 0c2.183 2.27 2.977 3.503 3.125 6.688C1.717 10.833-.537 13.6-3.309 16.949-5.137 19.095-5.137 19.095-7 22l2 4h2c4.257 5.122 6.944 10.717 9 17l-3-1-2 3-1.137-1.758C-3.653 37.87-3.653 37.87-7.812 33c-2.924-4.01-3.171-7.134-3.188-12l-.07-2.074c.193-5.48 2.635-8.23 6.347-12.094C-2.756 4.74-1.345 2.532 0 0"/><path style="stroke:none;stroke-width:1;stroke-dasharray:none;stroke-linecap:butt;stroke-dashoffset:0;stroke-linejoin:miter;stroke-miterlimit:4;fill:#fff;fill-rule:nonzero;opacity:1" vector-effect="non-scaling-stroke" transform="translate(404.49 582.46)" d="m0 0 1.664 1.066c3.318 2.382 4.289 3.728 5.211 7.747L7 12C-.23 9.934-5.392 5.807-11 1l-1.68 1.531-2.195 1.969-2.18 1.969C-19 8-19 8-21 8l1-4-3 1-2-2c7.454-6.607 16.026-8.783 25-3"/><path style="stroke:none;stroke-width:1;stroke-dasharray:none;stroke-linecap:butt;stroke-dashoffset:0;stroke-linejoin:miter;stroke-miterlimit:4;fill:#fff;fill-rule:nonzero;opacity:1" vector-effect="non-scaling-stroke" transform="translate(680.49 566.46)" d="M0 0h1v6h14v9H1v6H0z"/><path style="stroke:none;stroke-width:1;stroke-dasharray:none;stroke-linecap:butt;stroke-dashoffset:0;stroke-linejoin:miter;stroke-miterlimit:4;fill:#fff;fill-rule:nonzero;opacity:1" vector-effect="non-scaling-stroke" transform="translate(343.49 555.46)" d="m0 0-1 8h11v1l-8 1v2h-4v8h-1l-2-7-1 10h-1l-.008-2.738c-.115-3.516-.3-6.81-.992-10.262-2.841-2.47-2.841-2.47-6-3l1-5c4.75.875 4.75.875 7 2l1.875-2C-2 0-2 0 0 0"/><path style="stroke:none;stroke-width:1;stroke-dasharray:none;stroke-linecap:butt;stroke-dashoffset:0;stroke-linejoin:miter;stroke-miterlimit:4;fill:#fff;fill-rule:nonzero;opacity:1" vector-effect="non-scaling-stroke" transform="translate(371.49 475.46)" d="m0 0 .313 1.875C.875 4.365.875 4.365 4 6v3l2.438.75C9 11 9 11 9.813 13.125L10 15c-4.418 1.767-5.696.515-11-1v15h-1l-1-13-2 9h-1c-.077-4.516-.102-8.59 1-13l-2-1h5l-.687-2.125C-3.095 5.123-1.864 3.205 0 0"/><path style="stroke:none;stroke-width:1;stroke-dasharray:none;stroke-linecap:butt;stroke-dashoffset:0;stroke-linejoin:miter;stroke-miterlimit:4;fill:#fff;fill-rule:nonzero;opacity:1" vector-effect="non-scaling-stroke" transform="translate(444.49 518.46)" d="M0 0c2.183 2.27 2.977 3.503 3.125 6.688C1.429 11.68-2.142 17.57-7 20v-2l-3-1c.513-4.466 2.12-6.789 5-10.187C-2.214 3.594-2.214 3.594 0 0"/><path style="stroke:none;stroke-width:1;stroke-dasharray:none;stroke-linecap:butt;stroke-dashoffset:0;stroke-linejoin:miter;stroke-miterlimit:4;fill:#fff;fill-rule:nonzero;opacity:1" vector-effect="non-scaling-stroke" transform="translate(419.49 495.46)" d="m0 0 3 1c.185 12.67.185 12.67-1 18l-8 1C-3.11 6.367-3.11 6.367 0 0"/><path style="stroke:none;stroke-width:1;stroke-dasharray:none;stroke-linecap:butt;stroke-dashoffset:0;stroke-linejoin:miter;stroke-miterlimit:4;fill:#fff;fill-rule:nonzero;opacity:1" vector-effect="non-scaling-stroke" transform="translate(335.49 497.46)" d="M0 0h2l1 15 2-7h1v8l2 1-1 1 4 2H7v3h2l-.562 1.875C7.763 27.042 7.763 27.042 9 29l-3 3-1.059-2.336-1.378-3.039-1.372-3.023A149 149 0 0 0 0 19a68 68 0 0 1-.098-4.352l.01-2.578.025-2.695.014-2.719Q-.03 3.328 0 0"/><path style="stroke:none;stroke-width:1;stroke-dasharray:none;stroke-linecap:butt;stroke-dashoffset:0;stroke-linejoin:miter;stroke-miterlimit:4;fill:#fff;fill-rule:nonzero;opacity:1" vector-effect="non-scaling-stroke" transform="translate(418.49 584.46)" d="M0 0h2v12H0v3l-2.375.438c-2.59.44-2.59.44-4.625 1.562l2-5-1.5-1.312C-8 9-8 9-8 6l-2-1c5.75.875 5.75.875 8 2l.438-2.375C-1 2-1 2 0 0"/><path style="stroke:none;stroke-width:1;stroke-dasharray:none;stroke-linecap:butt;stroke-dashoffset:0;stroke-linejoin:miter;stroke-miterlimit:4;fill:#fff;fill-rule:nonzero;opacity:1" vector-effect="non-scaling-stroke" transform="translate(392.49 580.46)" d="M0 0c-.152 2.667-.494 4.45-2.332 6.445C-6.506 10-6.506 10-9 10l1-4-3 1-2-2c7.652-6.783 7.652-6.783 13-5"/><path style="stroke:none;stroke-width:1;stroke-dasharray:none;stroke-linecap:butt;stroke-dashoffset:0;stroke-linejoin:miter;stroke-miterlimit:4;fill:#fff;fill-rule:nonzero;opacity:1" vector-effect="non-scaling-stroke" transform="translate(439.49 550.46)" d="M0 0h6l5 10H8l-2 3a369 369 0 0 1-3-4.25L1.313 6.36C0 4 0 4 0 0"/><path style="stroke:none;stroke-width:1;stroke-dasharray:none;stroke-linecap:butt;stroke-dashoffset:0;stroke-linejoin:miter;stroke-miterlimit:4;fill:#fff;fill-rule:nonzero;opacity:1" vector-effect="non-scaling-stroke" transform="translate(355.49 511.46)" d="M0 0v5h-14l2-4C-7.842.195-4.233 0 0 0"/><path style="stroke:none;stroke-width:1;stroke-dasharray:none;stroke-linecap:butt;stroke-dashoffset:0;stroke-linejoin:miter;stroke-miterlimit:4;fill:#fff;fill-rule:nonzero;opacity:1" vector-effect="non-scaling-stroke" transform="translate(386.49 494.46)" d="M0 0c2.313-.25 2.313-.25 5 0 1.813 2 1.813 2 3 4L7 6c-5.625.25-5.625.25-9-2z"/><path style="stroke:none;stroke-width:1;stroke-dasharray:none;stroke-linecap:butt;stroke-dashoffset:0;stroke-linejoin:miter;stroke-miterlimit:4;fill:#fff;fill-rule:nonzero;opacity:1" vector-effect="non-scaling-stroke" transform="translate(414.48 485.46)" d="m0 0-2 3 3 1-9 6c-.074-3.343-.065-5.804 1-9 4.443-2.278 4.443-2.278 7-1"/><path style="stroke:none;stroke-width:1;stroke-dasharray:none;stroke-linecap:butt;stroke-dashoffset:0;stroke-linejoin:miter;stroke-miterlimit:4;fill:#fff;fill-rule:nonzero;opacity:1" vector-effect="non-scaling-stroke" transform="translate(381.62 586.34)" d="m0 0 2.875.125c-.75 2.938-.75 2.938-2 6-2.125.875-2.125.875-4 1l-2-5c2-2 2-2 5.125-2.125"/><path style="stroke:none;stroke-width:1;stroke-dasharray:none;stroke-linecap:butt;stroke-dashoffset:0;stroke-linejoin:miter;stroke-miterlimit:4;fill:#fff;fill-rule:nonzero;opacity:1" vector-effect="non-scaling-stroke" transform="translate(444.49 518.46)" d="M0 0c1.563 1.625 1.563 1.625 3 4-.22 3.673-.37 5.37-3 8l-1-3-2-1c.547-3.375 1.055-5.082 3-8"/><path style="stroke:none;stroke-width:1;stroke-dasharray:none;stroke-linecap:butt;stroke-dashoffset:0;stroke-linejoin:miter;stroke-miterlimit:4;fill:#fff;fill-rule:nonzero;opacity:1" vector-effect="non-scaling-stroke" transform="translate(337.49 567.46)" d="M0 0c3 2 3 2 3.512 3.945L4 10l-4 3z"/><path style="stroke:none;stroke-width:1;stroke-dasharray:none;stroke-linecap:butt;stroke-dashoffset:0;stroke-linejoin:miter;stroke-miterlimit:4;fill:#fff;fill-rule:nonzero;opacity:1" vector-effect="non-scaling-stroke" transform="translate(368.49 518.46)" d="M0 0h7v2l4 1v2C7.052 5 4.604 4.522 1 3z"/><path style="stroke:none;stroke-width:1;stroke-dasharray:none;stroke-linecap:butt;stroke-dashoffset:0;stroke-linejoin:miter;stroke-miterlimit:4;fill:#fff;fill-rule:nonzero;opacity:1" vector-effect="non-scaling-stroke" transform="translate(340.49 519.46)" d="m0 0 4 1-.562 1.875C2.763 5.042 2.763 5.042 4 7l-3 3C-.837 6.218-1.158 4.054 0 0"/><path style="stroke:none;stroke-width:1;stroke-dasharray:none;stroke-linecap:butt;stroke-dashoffset:0;stroke-linejoin:miter;stroke-miterlimit:4;fill:#fff;fill-rule:nonzero;opacity:1" vector-effect="non-scaling-stroke" transform="translate(414.49 474.46)" d="M0 0c2.154 2.622 3.4 4.644 4 8h-6l-1-4h3z"/><path style="stroke:none;stroke-width:1;stroke-dasharray:none;stroke-linecap:butt;stroke-dashoffset:0;stroke-linejoin:miter;stroke-miterlimit:4;fill:#fff;fill-rule:nonzero;opacity:1" vector-effect="non-scaling-stroke" transform="translate(342.49 521.46)" d="m0 0 6 5-1 5C3.063 8.938 3.063 8.938 1 7 .25 3.313.25 3.313 0 0"/><path style="stroke:none;stroke-width:1;stroke-dasharray:none;stroke-linecap:butt;stroke-dashoffset:0;stroke-linejoin:miter;stroke-miterlimit:4;fill:#fff;fill-rule:nonzero;opacity:1" vector-effect="non-scaling-stroke" transform="translate(340.49 503.46)" d="M0 0c.293 6.055.293 6.055 0 8l-3 2V1c2-1 2-1 3-1"/><path style="stroke:none;stroke-width:1;stroke-dasharray:none;stroke-linecap:butt;stroke-dashoffset:0;stroke-linejoin:miter;stroke-miterlimit:4;fill:#fff;fill-rule:nonzero;opacity:1" vector-effect="non-scaling-stroke" transform="translate(374.49 589.46)" d="m0 0 3 1c.688 2.063.688 2.063 1 4C.25 6.125.25 6.125-2 5z"/><path style="stroke:none;stroke-width:1;stroke-dasharray:none;stroke-linecap:butt;stroke-dashoffset:0;stroke-linejoin:miter;stroke-miterlimit:4;fill:#fff;fill-rule:nonzero;opacity:1" vector-effect="non-scaling-stroke" transform="translate(325.49 494.46)" d="m0 0 2 1-9 9-2-1c2.79-3.487 5.252-6.502 9-9"/><path style="stroke:none;stroke-width:1;stroke-dasharray:none;stroke-linecap:butt;stroke-dashoffset:0;stroke-linejoin:miter;stroke-miterlimit:4;fill:#fff;fill-rule:nonzero;opacity:1" vector-effect="non-scaling-stroke" transform="translate(364.49 518.46)" d="m0 0 5 1v2l4 2-3 4-1.312-3.375C3.3 1.825 3.3 1.825 0 0"/><path style="stroke:none;stroke-width:1;stroke-dasharray:none;stroke-linecap:butt;stroke-dashoffset:0;stroke-linejoin:miter;stroke-miterlimit:4;fill:#fff;fill-rule:nonzero;opacity:1" vector-effect="non-scaling-stroke" transform="translate(376.49 473.46)" d="M0 0c0 2.621-.313 4.51-1 7l-4-1c2.75-4.875 2.75-4.875 5-6"/><path style="stroke:none;stroke-width:1;stroke-dasharray:none;stroke-linecap:butt;stroke-dashoffset:0;stroke-linejoin:miter;stroke-miterlimit:4;fill:#fff;fill-rule:nonzero;opacity:1" vector-effect="non-scaling-stroke" transform="translate(343.49 512.46)" d="m0 0 5 1-1 3h-6z"/></svg>