<svg xmlns="http://www.w3.org/2000/svg" width="500" height="500"><path d="M187.95 75.68c2.107.329 4.215.604 6.331.868 4.58.58 9.15 1.232 13.719 1.89l4.656.658q4.53.64 9.059 1.294 4.173.6 8.351 1.146l3.747.5 3.269.421c2.895.539 5.282 1.234 7.918 2.543 1.59 2.547 1.59 2.547 2.938 5.75l1.503 3.504.767 1.848a304 304 0 0 0 2.507 5.8C257 111.658 257 111.658 257 114l3.491-.082c4.306.003 8.424.607 12.65 1.39a575 575 0 0 0 20.53 3.227l2.747.382q4.166.575 8.332 1.145a22331 22331 0 0 1 13.773 1.904l2.588.359 2.5.346q3.38.465 6.762.922l3.83.528 3.286.447C340 125 340 125 342 126c.888 1.616.888 1.616 1.797 3.74l1.044 2.415 1.124 2.654 1.19 2.768c1.267 2.95 2.525 5.906 3.783 8.86q1.218 2.844 2.439 5.686c4.826 11.254 9.593 22.532 14.36 33.811 5.479 12.958 11.028 25.887 16.576 38.816l4.72 11.005q1.497 3.494 2.988 6.99c1.977 4.631 3.957 9.255 6.078 13.823l.89 1.95a386 386 0 0 0 2.207 4.694c1.237 4.29.727 7.976-1.297 11.95l-1.383 1.826-1.565 2.112-1.701 2.212-3.574 4.797-1.853 2.46c-2.845 3.795-5.615 7.644-8.385 11.493l-1.63 2.256a1684 1684 0 0 0-12.289 17.288c-4.172 5.924-8.412 11.796-12.664 17.664A1377 1377 0 0 0 344 352.5a1715 1715 0 0 1-14.263 19.948c-2.575 3.552-5.14 7.11-7.674 10.693l-1.38 1.948q-1.267 1.79-2.525 3.586c-3.956 5.59-3.956 5.59-6.158 7.325-2.175.132-2.175.132-4.742-.216l-2.934-.374-3.199-.46-3.363-.447c-3.59-.482-7.176-.99-10.762-1.503l-3.485-.489a3019 3019 0 0 1-21.648-3.127q-10.096-1.49-20.195-2.962l-2.08-.304a4667 4667 0 0 0-30.951-4.415l-3.957-.552q-9.34-1.301-18.684-2.587l-6.734-.935-3.026-.413c-2.75-.383-5.494-.798-8.24-1.216l-2.804-.352c-6.634-.996-6.634-.996-9.287-4.074l-1.202-3.101-1.446-3.536-1.448-3.875a711 711 0 0 0-1.623-4.03 862 862 0 0 1-3.418-8.585c-2.64-6.684-5.52-13.265-8.377-19.858-1.598-3.695-3.18-7.398-4.762-11.1l-2.757-6.444q-3.53-8.241-7.063-16.483l-2.907-6.78-1.441-3.364-4.559-10.637-1.555-3.627q-1.52-3.547-3.032-7.097c-2.329-5.461-4.688-10.902-7.143-16.307l-1.31-2.924q-1.204-2.682-2.453-5.345c-2.538-5.697-2.538-5.697-2.007-9.032a213 213 0 0 1 7.469-10.699l3.555-4.86 1.815-2.478c2.626-3.609 5.192-7.258 7.755-10.912 3.622-5.152 7.27-10.282 10.96-15.385q1.65-2.283 3.294-4.571c2.558-3.556 5.143-7.08 7.824-10.544l1.435-1.894q1.316-1.734 2.68-3.429c2.065-2.751 2.803-4.448 2.858-7.907-1.682-6.034-4.391-11.563-7.076-17.208l-1.237-2.726c-.38-.81-.762-1.618-1.155-2.452-.77-3.148-.057-4.544 1.417-7.384 1.122-1.843 1.122-1.843 2.363-3.574l1.418-1.994 1.532-2.12 1.605-2.248A1935 1935 0 0 1 151 110l1.642-2.276 1.62-2.244 1.617-2.244q1.623-2.238 3.265-4.46c2.806-3.818 5.427-7.654 7.852-11.725l1.5-2.408a90 90 0 0 0 2.668-4.602c4.254-6.713 9.56-5.498 16.786-4.361" fill="#E1FDD8"/><path d="M341 126c2.357 3.536 4.021 7.259 5.75 11.125l1.197 2.67c4.063 9.13 7.951 18.33 11.839 27.534 6.063 14.35 12.199 28.667 18.339 42.983l1.512 3.525q1.481 3.456 2.964 6.911 1.464 3.414 2.92 6.831c2.312 5.415 4.645 10.817 7.055 16.19a1596 1596 0 0 1 3.406 7.675 580 580 0 0 0 2.443 5.394c4.526 10.279 4.526 10.279 2.575 16.162-1.1 2.161-1.1 2.161-2.484 3.988l-1.565 2.112-1.701 2.212-3.574 4.797-1.853 2.46c-2.845 3.795-5.615 7.644-8.385 11.493l-1.63 2.256a1684 1684 0 0 0-12.289 17.288c-4.172 5.924-8.412 11.796-12.664 17.664A1377 1377 0 0 0 344 352.5a1661 1661 0 0 1-14.263 19.945 824 824 0 0 0-7.675 10.73l-1.38 1.963a580 580 0 0 0-2.524 3.624c-1.914 2.722-3.346 4.363-6.158 6.238-3.513-6.83-6.694-13.744-9.676-20.82l-1.328-3.13q-1.419-3.341-2.833-6.686c-2.282-5.396-4.573-10.789-6.864-16.182l-2.402-5.66c-5.89-13.876-11.83-27.731-17.772-41.584l-4.403-10.264q-1.383-3.228-2.76-6.459a715 715 0 0 0-6.725-15.32l-1.308-2.92q-1.214-2.705-2.471-5.39c-2.614-5.869-2.614-5.869-1.836-9.452 2.49-3.855 2.49-3.855 3.741-5.453l1.418-1.842 1.531-1.963c4.597-6 8.963-12.11 13.188-18.375a417 417 0 0 1 13.98-19.441c3.845-5.076 7.456-10.284 11.02-15.559a418 418 0 0 1 13.98-19.441c4.427-5.844 8.536-11.881 12.638-17.955 4.216-6.21 8.634-12.24 13.189-18.206 2.57-3.304 2.57-3.304 4.693-6.898" fill="#0049AC"/><path d="M97 231q14.763 1.935 29.523 3.884 8.325 1.097 16.65 2.183c22.467 2.934 44.896 6.056 67.294 9.485l2.759.415q2.721.418 5.436.876c4.936.8 9.647 1.22 14.652 1.211 14.917.25 14.917.25 19.676 4.883 4.568 6.479 6.967 13.957 9.572 21.375q1.384 3.585 2.8 7.158a848 848 0 0 1 5.03 13.07c4.332 11.55 9.23 22.85 14.133 34.169 2.415 5.593 4.789 11.205 7.166 16.814 3.341 7.869 6.7 15.73 10.086 23.579l1.097 2.545q2.474 5.745 4.964 11.482l1.69 3.918 1.46 3.37C312 394 312 394 312 396c-16.758-1.908-33.448-4.152-50.133-6.616a13151 13151 0 0 0-22.275-3.266 4667 4667 0 0 0-30.951-4.415l-3.957-.552q-9.34-1.301-18.684-2.587l-6.734-.935-3.026-.413c-2.75-.383-5.494-.798-8.24-1.216l-2.804-.352c-6.634-.996-6.634-.996-9.287-4.074l-1.202-3.101-1.446-3.536-1.448-3.875a711 711 0 0 0-1.623-4.03 862 862 0 0 1-3.418-8.585c-2.64-6.684-5.52-13.265-8.377-19.858-1.598-3.695-3.18-7.398-4.762-11.1l-2.757-6.444q-3.53-8.242-7.064-16.483l-2.906-6.78-1.441-3.364-4.559-10.637-1.555-3.628-3.036-7.088a7549 7549 0 0 0-7.069-16.456l-1.282-2.978q-1.185-2.752-2.375-5.502l-1.042-2.422-.911-2.11C97 232 97 232 97 231" fill="#37B5FD"/><path d="M187.95 75.68c2.107.329 4.215.604 6.331.868 4.58.58 9.15 1.232 13.719 1.89l4.656.658q4.53.64 9.059 1.294 4.173.6 8.351 1.146l3.747.5 3.269.421c2.895.539 5.282 1.234 7.918 2.543 1.59 2.547 1.59 2.547 2.938 5.75l1.503 3.504.767 1.848a304 304 0 0 0 2.507 5.8C257 111.658 257 111.658 257 114h8v1h-7l1.21 2.766c1.48 3.396 2.942 6.799 4.4 10.204q.949 2.206 1.911 4.408c.924 2.112 1.83 4.231 2.733 6.352l.877 1.977c1.61 3.835 2.29 6.33.869 10.293-1.009 1.843-1.009 1.843-2.266 3.574l-1.427 1.994-1.557 2.12-1.62 2.248A1669 1669 0 0 1 258 168q-2.445 3.38-4.883 6.763a907 907 0 0 1-3.248 4.464c-2.799 3.834-5.499 7.7-8.076 11.687l-1.582 2.395q-1.487 2.258-2.902 4.562l-1.36 2.043-1.146 1.811c-5.177 3.66-15.043.663-20.916-.221l-3.183-.464q-5.01-.732-10.016-1.478-4.992-.736-9.985-1.467-3.096-.452-6.191-.914c-5.763-.846-11.47-1.456-17.287-1.783C165 195 165 195 162.711 192.578l-1.336-3.328-.787-1.84a165 165 0 0 1-1.674-4.106c-1.004-2.53-2.077-5.023-3.164-7.519a1084 1084 0 0 1-4.687-10.937 339 339 0 0 0-4.688-10.598q-1.193-2.623-2.375-5.25l-.917-2.017a567 567 0 0 1-3.02-6.858l-1.005-2.202c-1.278-2.994-2.195-5.198-1.581-8.45 2.149-3.489 4.436-6.84 6.836-10.16l1.605-2.249A1935 1935 0 0 1 151 110l1.642-2.276 1.62-2.244 1.617-2.244q1.623-2.238 3.265-4.46c2.806-3.818 5.427-7.654 7.852-11.725l1.5-2.408a90 90 0 0 0 2.668-4.602c4.254-6.713 9.56-5.498 16.786-4.361" fill="#0EBFDE"/><path d="M176 75c10.721.15 21.408 1.913 32 3.438l4.656.658q4.528.64 9.055 1.29 4.194.603 8.39 1.185l3.774.527 3.305.457c2.327.367 4.55.822 6.82 1.445-1.604 4.849-4.353 8.593-7.312 12.688l-1.602 2.241Q232.55 102.469 230 106l-1.674 2.324a5222 5222 0 0 1-8.197 11.344q-3.069 4.24-6.102 8.508l-1.394 1.962q-1.284 1.81-2.563 3.624c-1.589 2.24-3.124 4.292-5.07 6.238-5.675.327-10.924-.33-16.5-1.312-7.565-1.265-15.137-2.319-22.75-3.25l-3.077-.38q-6.729-.829-13.462-1.62l-4.086-.5-3.492-.41C139 132 139 132 137 130c6.6-9.807 13.281-19.506 20.453-28.905 5.776-7.622 11.097-15.556 16.43-23.491C175 76 175 76 176 75" fill="#E0FBD7"/><path d="M244 85c2.987 1.493 3.321 3.67 4.602 6.715l1.484 3.517.765 1.842a885 885 0 0 0 2.337 5.557C257 111.723 257 111.723 257 114h8v1h-7l1.21 2.766c1.48 3.396 2.942 6.799 4.4 10.204q.949 2.206 1.911 4.408c.924 2.112 1.83 4.231 2.733 6.352l.877 1.977c1.61 3.835 2.29 6.33.869 10.293-1.009 1.843-1.009 1.843-2.266 3.574l-1.427 1.994-1.557 2.12-1.62 2.248A1718 1718 0 0 1 258 168q-2.444 3.38-4.885 6.763-1.613 2.234-3.232 4.464a657 657 0 0 0-8.301 11.687l-1.664 2.395a719 719 0 0 0-3.137 4.562c-1.21 1.745-2.49 3.443-3.781 5.129h-2c-.21-.543-.422-1.086-.64-1.646-3.636-9.324-7.29-18.49-11.93-27.37-2.03-4.237-3.584-8.618-5.165-13.039-1.964-5.399-4.434-10.386-7.261-15.394-1.271-3.23-1.241-4.299-.004-7.551 1.756-2.852 3.739-5.511 5.75-8.187l3.574-4.852 1.853-2.497c2.826-3.82 5.606-7.673 8.386-11.526l1.6-2.216C232.84 100.86 238.427 92.935 244 85" fill="#024BAD"/></svg>