<svg xmlns="http://www.w3.org/2000/svg" width="80" height="580" viewBox="0 0 1080 1080" xml:space="preserve"><g transform="translate(540 540)"/><g transform="translate(540 540)"/><path style="stroke:none;stroke-width:1;stroke-dasharray:none;stroke-linecap:butt;stroke-dashoffset:0;stroke-linejoin:miter;stroke-miterlimit:4;fill:#fff;fill-rule:nonzero;opacity:1" vector-effect="non-scaling-stroke" transform="matrix(.13 0 0 -.13 -55.995 1297.933)" d="m1259 7823-96-4 32-33 32-34 6-708c4-389 7-1058 7-1486v-778h103c57 0 239 3 405 7l302 6v2407h1310l-2 313-3 312H2355c-550 1-1043-1-1096-2"/><path style="stroke:none;stroke-width:1;stroke-dasharray:none;stroke-linecap:butt;stroke-dashoffset:0;stroke-linejoin:miter;stroke-miterlimit:4;fill:#fff;fill-rule:nonzero;opacity:1" vector-effect="non-scaling-stroke" transform="matrix(.13 0 0 -.13 -54.47 1298.04)" d="M2170 6270v-310h1100v620H2170z"/><path style="stroke:none;stroke-width:1;stroke-dasharray:none;stroke-linecap:butt;stroke-dashoffset:0;stroke-linejoin:miter;stroke-miterlimit:4;fill:#fff;fill-rule:nonzero;opacity:1" vector-effect="non-scaling-stroke" transform="matrix(.13 0 0 -.13 -52.694 1300.94)" d="M3096 5776c5-14-43-198-146-561-27-93-52-178-55-187-7-16 2-18 93-18h100l19 78 19 77 120 3 119 3 21-78 20-78 102-3c56-1 102 0 102 4 0 3-25 92-56 198-105 361-164 566-164 571 0 3-67 5-150 5-126 0-149-2-144-14m189-302c19-71 35-132 35-136 0-5-31-8-70-8-38 0-70 3-70 8 0 15 64 271 68 268 1-2 18-61 37-132"/><path style="stroke:none;stroke-width:1;stroke-dasharray:none;stroke-linecap:butt;stroke-dashoffset:0;stroke-linejoin:miter;stroke-miterlimit:4;fill:#fff;fill-rule:nonzero;opacity:1" vector-effect="non-scaling-stroke" transform="matrix(.13 0 0 -.13 -50.125 1300.94)" d="m3918 5400 2-390h210v780h-215z"/><path style="stroke:none;stroke-width:1;stroke-dasharray:none;stroke-linecap:butt;stroke-dashoffset:0;stroke-linejoin:miter;stroke-miterlimit:4;fill:#fff;fill-rule:nonzero;opacity:1" vector-effect="non-scaling-stroke" transform="matrix(.13 0 0 -.13 -47.506 1300.93)" d="M4494 5768c3-13 6-188 6-390v-368h210v302l63-7c86-9 94-12 102-42 5-22 24-199 25-240 0-10 29-13 111-13h111l-7 108c-12 190-30 244-86 265l-28 11 36 21c62 35 78 66 78 153 0 96-27 151-95 190-41 25-56 27-167 31l-123 3v-152h50c55 0 104-20 114-45 9-25 7-74-4-95-13-24-62-40-126-40h-54v330h-111c-111 0-111 0-105-22"/><path style="stroke:none;stroke-width:1;stroke-dasharray:none;stroke-linecap:butt;stroke-dashoffset:0;stroke-linejoin:miter;stroke-miterlimit:4;fill:#fff;fill-rule:nonzero;opacity:1" vector-effect="non-scaling-stroke" transform="matrix(.13 0 0 -.13 -44.45 1299.9)" d="M5420 5710v-80h610v160h-610z"/><path style="stroke:none;stroke-width:1;stroke-dasharray:none;stroke-linecap:butt;stroke-dashoffset:0;stroke-linejoin:miter;stroke-miterlimit:4;fill:#fff;fill-rule:nonzero;opacity:1" vector-effect="non-scaling-stroke" transform="matrix(.13 0 0 -.13 -41.475 1300.94)" d="M6334 5774c3-9 6-184 6-390v-374h529l11 58c6 31 14 67 17 80l5 22h-362v460h330v160h-271c-243 0-271-2-265-16"/><path style="stroke:none;stroke-width:1;stroke-dasharray:none;stroke-linecap:butt;stroke-dashoffset:0;stroke-linejoin:miter;stroke-miterlimit:4;fill:#fff;fill-rule:nonzero;opacity:1" vector-effect="non-scaling-stroke" transform="matrix(.13 0 0 -.13 -38.42 1300.94)" d="M7200 5784c0-3 43-90 96-191l97-186-21-41c-12-22-60-108-107-191-47-82-85-153-85-157 0-5 48-8 108-8h107l63 126c35 70 67 123 71 118 5-5 32-62 62-126l53-118h246l-35 70c-19 38-69 128-110 200s-75 135-75 139c0 8 133 242 192 339l20 32h-222l-57-115c-32-63-60-115-63-115s-28 51-55 113l-51 112-117 3c-64 1-117 0-117-4"/><path style="stroke:none;stroke-width:1;stroke-dasharray:none;stroke-linecap:butt;stroke-dashoffset:0;stroke-linejoin:miter;stroke-miterlimit:4;fill:#fff;fill-rule:nonzero;opacity:1" vector-effect="non-scaling-stroke" transform="matrix(.13 0 0 -.13 -44.455 1301.25)" d="m5618 5305 3-295h209v590h-215z"/><path style="stroke:none;stroke-width:1;stroke-dasharray:none;stroke-linecap:butt;stroke-dashoffset:0;stroke-linejoin:miter;stroke-miterlimit:4;fill:#fff;fill-rule:nonzero;opacity:1" vector-effect="non-scaling-stroke" transform="matrix(.13 0 0 -.13 -41.135 1300.905)" d="M6580 5410v-80h281l-3 78-3 77-137 3-138 3z"/><path style="stroke:none;stroke-width:1;stroke-dasharray:none;stroke-linecap:butt;stroke-dashoffset:0;stroke-linejoin:miter;stroke-miterlimit:4;fill:#fff;fill-rule:nonzero;opacity:1" vector-effect="non-scaling-stroke" transform="matrix(.13 0 0 -.13 -51.18 1303.55)" d="M3537 4653c-4-3-7-24-7-45v-38h350v90h-168c-93 0-172-3-175-7"/><path style="stroke:none;stroke-width:1;stroke-dasharray:none;stroke-linecap:butt;stroke-dashoffset:0;stroke-linejoin:miter;stroke-miterlimit:4;fill:#fff;fill-rule:nonzero;opacity:1" vector-effect="non-scaling-stroke" transform="matrix(.13 0 0 -.13 -49.835 1304.14)" d="M3934 4629c3-17 6-116 6-220v-189h110v160h44c25 0 47-4 50-9s9-41 12-80l7-71h126l-5 58c-9 100-14 121-38 139l-23 18 21 10c51 26 57 124 11 171-26 26-83 44-142 44h-43v-45c0-44 1-45 33-45 40 0 57-15 57-50 0-37-18-50-67-50h-43v190h-122z"/><path style="stroke:none;stroke-width:1;stroke-dasharray:none;stroke-linecap:butt;stroke-dashoffset:0;stroke-linejoin:miter;stroke-miterlimit:4;fill:#fff;fill-rule:nonzero;opacity:1" vector-effect="non-scaling-stroke" transform="matrix(.13 0 0 -.13 -48.4 1304.137)" d="M4450 4643c0-10-25-106-55-213s-55-198-55-202c0-5 24-8 53-8h53l12 45 12 45h130l12-45 12-45h58c32 0 58 1 58 3 0 1-29 99-63 217l-63 215-82 3c-73 3-82 1-82-15m116-210c6-32 6-33-30-33-42 0-41-1-19 88l17 67 13-44c7-25 16-60 19-78"/><path style="stroke:none;stroke-width:1;stroke-dasharray:none;stroke-linecap:butt;stroke-dashoffset:0;stroke-linejoin:miter;stroke-miterlimit:4;fill:#fff;fill-rule:nonzero;opacity:1" vector-effect="non-scaling-stroke" transform="matrix(.13 0 0 -.13 -47.37 1304.14)" d="M4790 4440v-220h120v440h-120z"/><path style="stroke:none;stroke-width:1;stroke-dasharray:none;stroke-linecap:butt;stroke-dashoffset:0;stroke-linejoin:miter;stroke-miterlimit:4;fill:#fff;fill-rule:nonzero;opacity:1" vector-effect="non-scaling-stroke" transform="matrix(.13 0 0 -.13 -46.7 1304.152)" d="M4930 4615c0-41 2-45 25-45 36 0 71-19 84-47 15-32 14-135-1-168-13-29-55-55-88-55-19 0-21-5-18-42 3-38 6-43 30-46 41-5 104 16 139 45 47 40 69 95 69 179 0 137-74 224-192 224h-48z"/><path style="stroke:none;stroke-width:1;stroke-dasharray:none;stroke-linecap:butt;stroke-dashoffset:0;stroke-linejoin:miter;stroke-miterlimit:4;fill:#fff;fill-rule:nonzero;opacity:1" vector-effect="non-scaling-stroke" transform="matrix(.13 0 0 -.13 -45.845 1304.14)" d="m5248 4440 3-220h119v440h-125z"/><path style="stroke:none;stroke-width:1;stroke-dasharray:none;stroke-linecap:butt;stroke-dashoffset:0;stroke-linejoin:miter;stroke-miterlimit:4;fill:#fff;fill-rule:nonzero;opacity:1" vector-effect="non-scaling-stroke" transform="matrix(.13 0 0 -.13 -45.162 1304.14)" d="M5454 4638c3-13 6-112 6-220v-198h110v440h-61c-59 0-61-1-55-22"/><path style="stroke:none;stroke-width:1;stroke-dasharray:none;stroke-linecap:butt;stroke-dashoffset:0;stroke-linejoin:miter;stroke-miterlimit:4;fill:#fff;fill-rule:nonzero;opacity:1" vector-effect="non-scaling-stroke" transform="matrix(.13 0 0 -.13 -44.48 1304.14)" d="M5590 4563c0-94 1-101 52-220l51-123h147v440h-109l-3-147-3-148-24 65c-44 120-93 230-102 230-5 0-9-44-9-97"/><path style="stroke:none;stroke-width:1;stroke-dasharray:none;stroke-linecap:butt;stroke-dashoffset:0;stroke-linejoin:miter;stroke-miterlimit:4;fill:#fff;fill-rule:nonzero;opacity:1" vector-effect="non-scaling-stroke" transform="matrix(.13 0 0 -.13 -43.167 1304.15)" d="M6030 4638c-60-31-98-82-112-151-15-72 0-154 38-204 52-68 165-94 232-53 26 16 32 17 32 5 0-11 12-15 45-15h45v251l-97-3-98-3-3-42-3-43h35c31 0 36-3 36-24 0-57-72-77-109-30-39 50-36 180 6 227 22 23 75 22 98-3 14-16 31-20 77-20 57 0 59 1 52 23-30 96-167 139-274 85"/><path style="stroke:none;stroke-width:1;stroke-dasharray:none;stroke-linecap:butt;stroke-dashoffset:0;stroke-linejoin:miter;stroke-miterlimit:4;fill:#fff;fill-rule:nonzero;opacity:1" vector-effect="non-scaling-stroke" transform="matrix(.13 0 0 -.13 -51.17 1304.32)" d="M3650 4385v-165h120v330h-120z"/></svg>