<svg xmlns="http://www.w3.org/2000/svg" width="50" height="50" viewBox="0 0 24 24"><path d="M71.421 28.758c0.801 0.125 1.602 0.23 2.406 0.33 1.74 0.22 3.477 0.468 5.213 0.718l1.769 0.25q1.721 0.243 3.442 0.492 1.586 0.228 3.173 0.435l1.424 0.19 1.242 0.16c1.1 0.205 2.007 0.469 3.009 0.966 0.604 0.968 0.604 0.968 1.116 2.185l0.571 1.332 0.291 0.702a115.52 115.52 0 0 0 0.953 2.204C97.66 42.43 97.66 42.43 97.66 43.32l1.327 -0.031c1.636 0.001 3.201 0.231 4.807 0.528a218.5 218.5 0 0 0 7.801 1.226l1.044 0.145q1.583 0.218 3.166 0.435a8485.78 8485.78 0 0 1 5.234 0.724l0.983 0.136 0.95 0.131q1.284 0.177 2.57 0.35l1.455 0.201 1.249 0.17C129.2 47.5 129.2 47.5 129.96 47.88c0.337 0.614 0.337 0.614 0.683 1.421l0.397 0.918 0.427 1.009 0.452 1.052c0.481 1.121 0.96 2.244 1.438 3.367q0.463 1.081 0.927 2.161c1.834 4.277 3.645 8.562 5.457 12.848 2.082 4.924 4.191 9.837 6.299 14.75l1.794 4.182q0.569 1.328 1.135 2.656c0.751 1.76 1.504 3.517 2.31 5.253l0.338 0.741a146.68 146.68 0 0 0 0.839 1.784c0.47 1.63 0.276 3.031 -0.493 4.541l-0.526 0.694 -0.595 0.803 -0.646 0.841 -1.358 1.823 -0.704 0.935c-1.081 1.442 -2.134 2.905 -3.186 4.367l-0.619 0.857a639.92 639.92 0 0 0 -4.67 6.569c-1.585 2.251 -3.197 4.482 -4.812 6.712A523.26 523.26 0 0 0 130.72 133.95a651.7 651.7 0 0 1 -5.42 7.58c-0.979 1.35 -1.953 2.702 -2.916 4.063l-0.524 0.74q-0.481 0.68 -0.96 1.363c-1.503 2.124 -1.503 2.124 -2.34 2.784 -0.826 0.05 -0.826 0.05 -1.802 -0.082l-1.115 -0.142 -1.216 -0.175 -1.278 -0.17c-1.364 -0.183 -2.727 -0.376 -4.09 -0.571l-1.324 -0.186a1147.22 1147.22 0 0 1 -8.226 -1.188q-3.836 -0.566 -7.674 -1.126l-0.79 -0.116a1773.46 1773.46 0 0 0 -11.761 -1.678l-1.504 -0.21q-3.549 -0.494 -7.1 -0.983l-2.559 -0.355 -1.15 -0.157c-1.045 -0.146 -2.088 -0.303 -3.131 -0.462l-1.066 -0.134c-2.521 -0.378 -2.521 -0.378 -3.529 -1.548l-0.457 -1.178 -0.549 -1.344 -0.55 -1.472a270.18 270.18 0 0 0 -0.617 -1.531 327.56 327.56 0 0 1 -1.299 -3.262c-1.003 -2.54 -2.098 -5.041 -3.183 -7.546 -0.607 -1.404 -1.208 -2.811 -1.81 -4.218l-1.048 -2.449q-1.341 -3.132 -2.684 -6.264l-1.105 -2.576 -0.548 -1.278 -1.732 -4.042 -0.591 -1.378q-0.578 -1.348 -1.152 -2.697c-0.885 -2.075 -1.781 -4.143 -2.714 -6.197l-0.498 -1.111q-0.458 -1.019 -0.932 -2.031c-0.964 -2.165 -0.964 -2.165 -0.763 -3.432a80.94 80.94 0 0 1 2.838 -4.066l1.351 -1.847 0.69 -0.942c0.998 -1.371 1.973 -2.758 2.947 -4.147 1.376 -1.958 2.763 -3.907 4.165 -5.846q0.627 -0.868 1.252 -1.737c0.972 -1.351 1.954 -2.69 2.973 -4.007l0.545 -0.72q0.5 -0.659 1.018 -1.303c0.785 -1.045 1.065 -1.69 1.086 -3.005 -0.639 -2.293 -1.669 -4.394 -2.689 -6.539l-0.47 -1.036c-0.144 -0.308 -0.29 -0.615 -0.439 -0.932 -0.293 -1.196 -0.022 -1.727 0.538 -2.806 0.426 -0.7 0.426 -0.7 0.898 -1.358l0.539 -0.758 0.582 -0.806 0.61 -0.854A735.3 735.3 0 0 1 57.38 41.8l0.624 -0.865 0.616 -0.853 0.614 -0.853q0.617 -0.85 1.241 -1.695c1.066 -1.451 2.062 -2.909 2.984 -4.455l0.57 -0.915a34.2 34.2 0 0 0 1.014 -1.749c1.617 -2.551 3.633 -2.089 6.379 -1.657" fill="#E1FDD8"/><path d="M129.58 47.88c0.896 1.344 1.528 2.758 2.185 4.228l0.455 1.015c1.544 3.469 3.021 6.965 4.499 10.463 2.304 5.453 4.636 10.893 6.969 16.334l0.575 1.339q0.563 1.313 1.126 2.626 0.556 1.297 1.11 2.596c0.879 2.058 1.765 4.11 2.681 6.152a606.48 606.48 0 0 1 1.294 2.917 220.4 220.4 0 0 0 0.928 2.05c1.72 3.906 1.72 3.906 0.979 6.142 -0.418 0.821 -0.418 0.821 -0.944 1.515l-0.595 0.803 -0.646 0.841 -1.358 1.823 -0.704 0.935c-1.081 1.442 -2.134 2.905 -3.186 4.367l-0.619 0.857a639.92 639.92 0 0 0 -4.67 6.569c-1.585 2.251 -3.197 4.482 -4.812 6.712A523.26 523.26 0 0 0 130.72 133.95a631.18 631.18 0 0 1 -5.42 7.579 313.12 313.12 0 0 0 -2.917 4.077l-0.524 0.746a220.4 220.4 0 0 0 -0.959 1.377c-0.727 1.034 -1.271 1.658 -2.34 2.37 -1.335 -2.595 -2.544 -5.223 -3.677 -7.912l-0.505 -1.189q-0.539 -1.27 -1.077 -2.541c-0.867 -2.05 -1.738 -4.1 -2.608 -6.149l-0.913 -2.151c-2.238 -5.273 -4.495 -10.538 -6.753 -15.802l-1.673 -3.9q-0.526 -1.227 -1.049 -2.454a271.7 271.7 0 0 0 -2.555 -5.822l-0.497 -1.11q-0.461 -1.028 -0.939 -2.048c-0.993 -2.23 -0.993 -2.23 -0.698 -3.592 0.946 -1.465 0.946 -1.465 1.422 -2.072l0.539 -0.7 0.582 -0.746c1.747 -2.28 3.406 -4.602 5.011 -6.982a158.46 158.46 0 0 1 5.312 -7.388c1.461 -1.929 2.833 -3.908 4.188 -5.912a158.84 158.84 0 0 1 5.312 -7.388c1.682 -2.221 3.244 -4.515 4.802 -6.823 1.602 -2.36 3.281 -4.651 5.012 -6.918 0.977 -1.256 0.977 -1.256 1.783 -2.621" fill="#0049AC"/><path d="M36.86 87.78q5.61 0.735 11.219 1.476 3.163 0.417 6.327 0.83c8.537 1.115 17.06 2.301 25.572 3.604l1.048 0.158q1.034 0.159 2.066 0.333c1.876 0.304 3.666 0.464 5.568 0.46 5.668 0.095 5.668 0.095 7.477 1.856 1.736 2.462 2.647 5.304 3.637 8.123q0.526 1.362 1.064 2.72a322.24 322.24 0 0 1 1.911 4.967c1.646 4.389 3.507 8.683 5.371 12.984 0.918 2.125 1.82 4.258 2.723 6.389 1.27 2.99 2.546 5.977 3.833 8.96l0.417 0.967q0.94 2.183 1.886 4.363l0.642 1.489 0.555 1.281C118.56 149.72 118.56 149.72 118.56 150.48c-6.368 -0.725 -12.71 -1.578 -19.051 -2.514a4997.38 4997.38 0 0 0 -8.464 -1.241 1773.46 1773.46 0 0 0 -11.761 -1.678l-1.504 -0.21q-3.549 -0.494 -7.1 -0.983l-2.559 -0.355 -1.15 -0.157c-1.045 -0.146 -2.088 -0.303 -3.131 -0.462l-1.066 -0.134c-2.521 -0.378 -2.521 -0.378 -3.529 -1.548l-0.457 -1.178 -0.549 -1.344 -0.55 -1.472a270.18 270.18 0 0 0 -0.617 -1.531 327.56 327.56 0 0 1 -1.299 -3.262c-1.003 -2.54 -2.098 -5.041 -3.183 -7.546 -0.607 -1.404 -1.208 -2.811 -1.81 -4.218l-1.048 -2.449q-1.341 -3.132 -2.684 -6.264l-1.104 -2.576 -0.548 -1.278 -1.732 -4.042 -0.591 -1.379 -1.154 -2.693a2868.62 2868.62 0 0 0 -2.686 -6.253l-0.487 -1.132q-0.45 -1.046 -0.902 -2.091l-0.396 -0.92 -0.346 -0.802C36.86 88.16 36.86 88.16 36.86 87.78" fill="#37B5FD"/><path d="M71.421 28.758c0.801 0.125 1.602 0.23 2.406 0.33 1.74 0.22 3.477 0.468 5.213 0.718l1.769 0.25q1.721 0.243 3.442 0.492 1.586 0.228 3.173 0.435l1.424 0.19 1.242 0.16c1.1 0.205 2.007 0.469 3.009 0.966 0.604 0.968 0.604 0.968 1.116 2.185l0.571 1.332 0.291 0.702a115.52 115.52 0 0 0 0.953 2.204C97.66 42.43 97.66 42.43 97.66 43.32h3.04v0.38h-2.66l0.46 1.051c0.562 1.29 1.118 2.584 1.672 3.878q0.361 0.838 0.726 1.675c0.351 0.803 0.695 1.608 1.039 2.414l0.333 0.751c0.612 1.457 0.87 2.405 0.33 3.911 -0.383 0.7 -0.383 0.7 -0.861 1.358l-0.542 0.758 -0.592 0.806 -0.616 0.854A634.22 634.22 0 0 1 98.04 63.84q-0.929 1.284 -1.856 2.57a344.66 344.66 0 0 1 -1.234 1.696c-1.064 1.457 -2.09 2.926 -3.069 4.441l-0.601 0.91q-0.565 0.858 -1.103 1.734l-0.517 0.776 -0.435 0.688c-1.967 1.391 -5.716 0.252 -7.948 -0.084l-1.21 -0.176q-1.904 -0.278 -3.806 -0.562 -1.897 -0.28 -3.794 -0.557 -1.176 -0.172 -2.353 -0.347c-2.19 -0.321 -4.359 -0.553 -6.569 -0.678C62.7 74.1 62.7 74.1 61.83 73.18l-0.508 -1.265 -0.299 -0.699a62.7 62.7 0 0 1 -0.636 -1.56c-0.382 -0.961 -0.789 -1.909 -1.202 -2.857a411.92 411.92 0 0 1 -1.781 -4.156 128.82 128.82 0 0 0 -1.781 -4.027q-0.453 -0.997 -0.902 -1.995l-0.348 -0.766a215.46 215.46 0 0 1 -1.148 -2.606l-0.382 -0.837c-0.486 -1.138 -0.834 -1.975 -0.601 -3.211 0.817 -1.326 1.686 -2.599 2.598 -3.861l0.61 -0.855A735.3 735.3 0 0 1 57.38 41.8l0.624 -0.865 0.616 -0.853 0.614 -0.853q0.617 -0.85 1.241 -1.695c1.066 -1.451 2.062 -2.909 2.984 -4.455l0.57 -0.915a34.2 34.2 0 0 0 1.014 -1.749c1.617 -2.551 3.633 -2.089 6.379 -1.657" fill="#0EBFDE"/><path d="M66.88 28.5c4.074 0.057 8.135 0.727 12.16 1.306l1.769 0.25q1.721 0.243 3.441 0.49 1.594 0.229 3.188 0.45l1.434 0.2 1.256 0.174c0.884 0.139 1.729 0.312 2.592 0.549 -0.61 1.843 -1.654 3.265 -2.779 4.821l-0.609 0.852Q88.369 38.938 87.4 40.28l-0.636 0.883a1984.36 1984.36 0 0 1 -3.115 4.311q-1.166 1.611 -2.319 3.233l-0.53 0.746q-0.488 0.688 -0.974 1.377c-0.604 0.851 -1.187 1.631 -1.927 2.37 -2.156 0.124 -4.151 -0.125 -6.27 -0.499 -2.875 -0.481 -5.752 -0.881 -8.645 -1.235l-1.169 -0.144q-2.557 -0.315 -5.116 -0.616l-1.553 -0.19 -1.327 -0.156C52.82 50.16 52.82 50.16 52.06 49.4c2.508 -3.727 5.047 -7.412 7.772 -10.984 2.195 -2.896 4.217 -5.911 6.243 -8.927C66.5 28.88 66.5 28.88 66.88 28.5" fill="#E0FBD7"/><path d="M92.72 32.3c1.135 0.567 1.262 1.395 1.749 2.552l0.564 1.336 0.291 0.7a336.3 336.3 0 0 0 0.888 2.112C97.66 42.455 97.66 42.455 97.66 43.32h3.04v0.38h-2.66l0.46 1.051c0.562 1.29 1.118 2.584 1.672 3.878q0.361 0.838 0.726 1.675c0.351 0.803 0.695 1.608 1.039 2.414l0.333 0.751c0.612 1.457 0.87 2.405 0.33 3.911 -0.383 0.7 -0.383 0.7 -0.861 1.358l-0.542 0.758 -0.592 0.806 -0.616 0.854A652.84 652.84 0 0 1 98.04 63.84q-0.929 1.284 -1.856 2.57 -0.613 0.849 -1.228 1.696a249.66 249.66 0 0 0 -3.154 4.441l-0.632 0.91a273.22 273.22 0 0 0 -1.192 1.734c-0.46 0.663 -0.946 1.308 -1.437 1.949h-0.76c-0.08 -0.206 -0.16 -0.413 -0.243 -0.625 -1.382 -3.543 -2.77 -7.026 -4.533 -10.401 -0.771 -1.61 -1.362 -3.275 -1.963 -4.955 -0.746 -2.052 -1.685 -3.947 -2.759 -5.85 -0.483 -1.227 -0.472 -1.634 -0.002 -2.869 0.667 -1.084 1.421 -2.094 2.185 -3.111l1.358 -1.844 0.704 -0.949c1.074 -1.452 2.13 -2.916 3.187 -4.38l0.608 -0.842C88.479 38.327 90.602 35.315 92.72 32.3" fill="#024BAD"/></svg>