<svg xmlns="http://www.w3.org/2000/svg" width="1480" height="1480" viewBox="0 0 1080 1080" xml:space="preserve"><g transform="translate(540 540)"/><g transform="translate(540 540)"/><path style="stroke:none;stroke-width:1;stroke-dasharray:none;stroke-linecap:butt;stroke-dashoffset:0;stroke-linejoin:miter;stroke-miterlimit:4;fill:#fff;fill-rule:nonzero;opacity:1" vector-effect="non-scaling-stroke" transform="matrix(1 0 0 .77 318.91 455.321)" d="M0 0v2l2.617.227c4.071.93 6.244 2.569 9.508 5.148l3.07 2.398L18 12l2.367 1.664L22 15v2l1.813.813c2.185 1.186 3.6 2.283 5.187 4.187v2h2v3h2l.875 1.875C34.937 31.133 34.937 31.133 37 33c8.245 17.357 12.713 38.552 6.656 57.227L43 92h-3l.105-1.625c.612-17.705-4.883-33.33-16.523-46.773-13.522-13.624-28.754-20.8-48.02-21.04-7.62.008-14.001.856-21.164 3.563C-48 27-48 27-51 27a1546 1546 0 0 1-4.562-11.25l-1.327-3.223-1.24-3.105-1.158-2.857c-.75-2.7-.675-3.975.287-6.565 18.313-5.313 41.005-8.998 59 0"/><path style="stroke:none;stroke-width:1;stroke-dasharray:none;stroke-linecap:butt;stroke-dashoffset:0;stroke-linejoin:miter;stroke-miterlimit:4;fill:#fff;fill-rule:nonzero;opacity:1" vector-effect="non-scaling-stroke" transform="matrix(1 0 0 .77 212.91 488.431)" d="m0 0 3 1-.07 2.457C2.653 20.453 6.593 34.992 18 48l2.29 2.934c2.78 3.33 5.924 5.734 9.523 8.129l1.959 1.304c15.634 9.915 33.005 11.136 50.673 7.367C86.3 66.938 90.09 66.4 94 66l3.71 11.133.664 1.97a228 228 0 0 1 1.665 5.327c.682 2.715.682 2.715 2.961 3.57-.61 1.863-.61 1.863-2 4-2.828 1.23-2.828 1.23-6.25 2.188l-3.39.98c-20.258 5.017-41.083 1.214-58.922-9.356A282 282 0 0 1 25 81v-2l-1.687-.687C20.305 76.605 18.367 74.533 16 72l-1.629-1.648C-.575 54.502-3.522 34.83-3 14c.483-10.225.483-10.225 3-14"/><path style="stroke:none;stroke-width:1;stroke-dasharray:none;stroke-linecap:butt;stroke-dashoffset:0;stroke-linejoin:miter;stroke-miterlimit:4;fill:#fff;fill-rule:nonzero;opacity:1" vector-effect="non-scaling-stroke" transform="matrix(1 0 0 .77 309.79 479.053)" d="m0 0 2.162.5c4.309 1.075 8.04 2.542 11.963 4.688v2l3-1c1.5 1.375 1.5 1.375 3 3v2l1.766.78c2.414 1.318 4.051 2.77 5.984 4.72l1.86 1.843c1.39 1.657 1.39 1.657 1.39 3.657h2A1523 1523 0 0 1 36.5 29.25l.96 1.99c7.05 14.908 6.796 29.758 1.56 45.21-2.336 6.022-5.079 12.264-9.895 16.737h-3c.798-4.31 3.07-7.531 5.387-11.19 3.468-6.324 4.09-11.983 4.113-19.06l.018-2.58c-.108-5.478-1.088-9.268-3.518-14.17a232 232 0 0 1-1.5-4.187c-1.109-3.033-2.46-5.286-4.5-7.812v-2h-2c-3-3.462-3-3.462-3-6l-2.195-.813c-3.637-1.54-6.795-3.618-10.11-5.75-10.488-5.594-23.462-5.366-34.695-2.437-1.998.344-3.997.683-6 1-5.74-10.374-5.74-10.374-5-16C-24.418-2.304-12.895-3.003 0 0"/><path style="stroke:none;stroke-width:1;stroke-dasharray:none;stroke-linecap:butt;stroke-dashoffset:0;stroke-linejoin:miter;stroke-miterlimit:4;fill:#fff;fill-rule:nonzero;opacity:1" vector-effect="non-scaling-stroke" transform="matrix(1 0 0 .77 237.91 463.791)" d="M0 0c.25 2.75.25 2.75 0 6l-4 4c-1.263 2.925-2.12 5.942-3 9l-1.187 3.5c-2.503 10.781-.383 22.845 5.374 32.25l1.606 2.36C0 59 0 59 0 61h2l.75 2.375C4.233 66.488 4.985 66.593 8 68q2.045 1.418 4.063 2.875C23.229 78.337 35.858 80.355 49 78a232 232 0 0 0 9-2c3.258 5.12 6 9.84 6 16-17.738 4.616-33.63 5.716-50.266-3.32C2.43 81.735 2.43 81.735 0 76h-2c-4-5.412-4-5.412-4-8h-2c-2.936-4.768-4.948-9.215-6.25-14.687l-.506-2.126C-18.124 36.122-14.956 20.665-8 7h2l.313-1.812C-4.72 2.108-3.392 0 0 0"/><path style="stroke:none;stroke-width:1;stroke-dasharray:none;stroke-linecap:butt;stroke-dashoffset:0;stroke-linejoin:miter;stroke-miterlimit:4;fill:#fff;fill-rule:nonzero;opacity:1" vector-effect="non-scaling-stroke" transform="matrix(1 0 0 .77 415.91 456.091)" d="M0 0h15l6 11 2.438-4.937C25.875 1.125 25.875 1.125 27 0a153 153 0 0 1 6.563-.062l3.628.027L40 0l1 2c-.912 1.908-.912 1.908-2.344 4.21L37.13 8.735a1550 1550 0 0 1-3.258 5.258l-1.527 2.531-1.432 2.31c-1.088 2.585-.916 3.593.088 6.167a99 99 0 0 0 2.813 4.688C41 41.395 41 41.395 41 47H26c-5-9.625-5-9.625-5-13-2.727 2.407-4.12 4.925-5.687 8.188L13 47H-1c.882-4.41 1.779-6.767 3.938-10.562C4.698 33.32 6.432 30.218 8 27h2v-8H8q-2.01-3.9-4-7.812L2.844 8.95 1.75 6.793.734 4.809C0 3 0 3 0 0"/><path style="stroke:none;stroke-width:1;stroke-dasharray:none;stroke-linecap:butt;stroke-dashoffset:0;stroke-linejoin:miter;stroke-miterlimit:4;fill:#fff;fill-rule:nonzero;opacity:1" vector-effect="non-scaling-stroke" transform="matrix(1 0 0 .77 498.92 456.091)" d="M0 0h32v11H14v7h18v10H14v7h20c0 7.875 0 7.875-2 12q-6.595.037-13.19.055-2.244.008-4.49.02-3.22.017-6.441.023l-3.92.016C1 47 1 47 0 46a65 65 0 0 1-.114-4.336v-2.79l.016-3.034.005-3.09c.005-3.27.018-6.542.03-9.812l.014-6.635C-.039 10.868-.019 5.434 0 0"/><path style="stroke:none;stroke-width:1;stroke-dasharray:none;stroke-linecap:butt;stroke-dashoffset:0;stroke-linejoin:miter;stroke-miterlimit:4;fill:#fff;fill-rule:nonzero;opacity:1" vector-effect="non-scaling-stroke" transform="matrix(1 0 0 .77 581.47 519.763)" d="m0 0 2.287-.01c3.844.037 6.896.156 10.15 2.323v2l3 1c.95 2.066.95 2.066 1.688 4.562l.762 2.504.55 1.934c-2.29.08-4.582.139-6.875.187l-3.867.105-3.258-.293-2-3c-3.065-.733-3.065-.733-6-1l1 5 2.192.43c13.642 2.77 13.642 2.77 17.805 8.344 2.088 4.632 1.892 9.305 1.003 14.227-1.428 3.482-3.609 5.285-6.984 7.019-7.13 2.769-14.444 3.146-21.64.48l-3.376-1.5v-2h-2c-2.345-4.202-3-6.01-3-11h13l2 5h8c-.524-2.98-.524-2.98-2-6-2.887-1.448-2.887-1.448-6.312-2.125-5.609-1.342-9.719-2.856-12.977-7.851-1.29-3.673-1.25-7.193-.71-11.023C-13.527 1.242-8.392-.18 0 0"/><path style="stroke:none;stroke-width:1;stroke-dasharray:none;stroke-linecap:butt;stroke-dashoffset:0;stroke-linejoin:miter;stroke-miterlimit:4;fill:#fff;fill-rule:nonzero;opacity:1" vector-effect="non-scaling-stroke" transform="matrix(1 0 0 .77 381.91 456.091)" d="M0 0h19c8.821 29.483 8.821 29.483 12 42l.66 2.316L32 46c-1 1-1 1-3.723 1.098l-3.34-.035-3.347-.028L19 47a752 752 0 0 1-1.5-3.875l-.844-2.18C16 39 16 39 16 37H4l-.375 2.75C3 43 3 43 1 47h-12c2.236-12.111 5.61-23.904 9.168-35.684C-.902 7.61-.474 3.792 0 0m9 16L7 27h6c-.744-5.55-.744-5.55-2-11z"/><path style="stroke:none;stroke-width:1;stroke-dasharray:none;stroke-linecap:butt;stroke-dashoffset:0;stroke-linejoin:miter;stroke-miterlimit:4;fill:#fff;fill-rule:nonzero;opacity:1" vector-effect="non-scaling-stroke" transform="matrix(1 0 0 .77 452.96 519.909)" d="M0 0q2.023 0 4.047.016L6.195.02q3.408.01 6.816.031l4.612.014q5.662.016 11.326.049v11h-18v7h17v10h-17v8h20l-2 10h-32q-.25-9.585-.482-19.172-.08-3.263-.166-6.527-.122-4.68-.23-9.36l-.083-2.967-.06-2.73-.061-2.416C-3.99-.234-3.215.12 0 0"/><path style="stroke:none;stroke-width:1;stroke-dasharray:none;stroke-linecap:butt;stroke-dashoffset:0;stroke-linejoin:miter;stroke-miterlimit:4;fill:#fff;fill-rule:nonzero;opacity:1" vector-effect="non-scaling-stroke" transform="matrix(1 0 0 .77 487.91 520.001)" d="M0 0h33v11H14v7h18v10H14v8h21l-2 10H1z"/><path style="stroke:none;stroke-width:1;stroke-dasharray:none;stroke-linecap:butt;stroke-dashoffset:0;stroke-linejoin:miter;stroke-miterlimit:4;fill:#fff;fill-rule:nonzero;opacity:1" vector-effect="non-scaling-stroke" transform="matrix(1 0 0 .77 373.91 520.001)" d="m0 0 16.438-.062L21.63-.09l4.053-.008 2.143-.015c1.725 0 3.45.05 5.173.113 1 1 1 1 1.133 3.031L34.125 5.5l.008 2.469C34 10 34 10 33 11c-1.343.086-2.69.107-4.035.098l-2.451-.01-2.576-.025-2.588-.014Q18.175 11.029 15 11v7h17v11H15l-1 17H1z"/><path style="stroke:none;stroke-width:1;stroke-dasharray:none;stroke-linecap:butt;stroke-dashoffset:0;stroke-linejoin:miter;stroke-miterlimit:4;fill:#fff;fill-rule:nonzero;opacity:1" vector-effect="non-scaling-stroke" transform="matrix(1 0 0 .77 313.87 495.238)" d="M0 0c3.907 2.064 7.49 4.54 11.044 7.164l2.36 1.629 1.64 1.371v2h2C26.11 22.655 28.2 34.602 27.298 48.006c-.587 4.985-2.246 9.586-4.254 14.158h-2l-.375 1.813c-.625 2.187-.625 2.187-2.625 5.187h-3c.666-3.325 1.972-5.894 3.562-8.875 3.778-8.224 3.91-16.992.813-25.5-1.88-4.097-4.335-7.566-7.203-11.031-1.172-1.594-1.172-1.594-1.172-3.594l-5-2v-2l-2.117-.621-2.758-.816-2.742-.809c-2.383-.754-2.383-.754-4.383-1.754a167 167 0 0 0-7.625-.125l-2.188.006c-4.803.039-9.442.328-14.187 1.12a265 265 0 0 1-2.063-4.25l-1.16-2.392c-.863-2.619-.708-3.807.223-6.359h5v-2l3.312.063C-4.932-2.108-4.932-2.108 0 0"/><path style="stroke:none;stroke-width:1;stroke-dasharray:none;stroke-linecap:butt;stroke-dashoffset:0;stroke-linejoin:miter;stroke-miterlimit:4;fill:#fff;fill-rule:nonzero;opacity:1" vector-effect="non-scaling-stroke" transform="matrix(1 0 0 .77 241.91 467.641)" d="m0 0 2 3C1.11 6.351.002 9.514-1.213 12.756-4.139 21.153-2.103 28.84 1 37c1.722 2.96 3.338 5.338 5.75 7.75C8 46 8 46 8 48l1.563.75c1.959 1.005 3.865 2.112 5.75 3.25 7.648 4.324 16.5 5.434 25.097 3.441l2.09-.629c3.5-.812 3.5-.812 5.875 0C50.876 58.18 51.349 61.915 52 66c-10.604 4.713-23.327 4.792-34.187.813A118 118 0 0 1 12 64l-2.07-1.059C1.763 57.942-4.876 47.102-7.583 38.051-9.77 27.301-8.99 14.762-4 5l1.008-2.219C-2 1-2 1 0 0"/><path style="stroke:none;stroke-width:1;stroke-dasharray:none;stroke-linecap:butt;stroke-dashoffset:0;stroke-linejoin:miter;stroke-miterlimit:4;fill:#fff;fill-rule:nonzero;opacity:1" vector-effect="non-scaling-stroke" transform="matrix(1 0 0 .77 460.92 456.091)" d="M0 0h15v35h18c1.099 3.297.871 4.405.063 7.688l-.59 2.449L32 47q-6.381.037-12.762.055-2.173.008-4.345.02-3.116.017-6.233.023l-3.793.016C2 47 2 47 1 46a66 66 0 0 1-.205-4.336l-.06-2.79-.051-3.034-.063-3.09q-.098-4.906-.183-9.812l-.131-6.635Q.146 8.152 0 0"/><path style="stroke:none;stroke-width:1;stroke-dasharray:none;stroke-linecap:butt;stroke-dashoffset:0;stroke-linejoin:miter;stroke-miterlimit:4;fill:#fff;fill-rule:nonzero;opacity:1" vector-effect="non-scaling-stroke" transform="matrix(1 0 0 .77 411.91 520.001)" d="M0 0h14c1 1 1 1 1.114 4.326q0 2.214-.016 4.428l-.005 2.35c-.005 2.486-.018 4.972-.03 7.459q-.009 2.522-.014 5.044c-.01 4.131-.03 8.262-.049 12.393h18c0 7 0 7-1 10H1z"/><path style="stroke:none;stroke-width:1;stroke-dasharray:none;stroke-linecap:butt;stroke-dashoffset:0;stroke-linejoin:miter;stroke-miterlimit:4;fill:#fff;fill-rule:nonzero;opacity:1" vector-effect="non-scaling-stroke" transform="matrix(1 0 0 .77 237.91 463.791)" d="M0 0c.25 2.75.25 2.75 0 6l-4 4c-1.263 2.925-2.12 5.942-3 9l-1.187 3.5c-2.503 10.781-.383 22.845 5.374 32.25l1.606 2.36C0 59 0 59 0 61h2l.75 2.375C4.238 66.501 4.965 66.59 8 68q2.395 1.531 4.75 3.125l2.422 1.633L17 74l-1.922.805c-2.416 1.104-2.416 1.104-3.328 4.32L11 82l4 4-2 2q-2.41-1.65-4.812-3.312L5.48 82.824C3.428 81.314 1.64 79.944 0 78v-2h-2c-4-5.412-4-5.412-4-8h-2c-2.936-4.768-4.948-9.215-6.25-14.687l-.506-2.126C-18.124 36.122-14.956 20.665-8 7h2l.313-1.812C-4.72 2.108-3.392 0 0 0"/><path style="stroke:none;stroke-width:1;stroke-dasharray:none;stroke-linecap:butt;stroke-dashoffset:0;stroke-linejoin:miter;stroke-miterlimit:4;fill:#fff;fill-rule:nonzero;opacity:1" vector-effect="non-scaling-stroke" transform="matrix(1 0 0 .77 212.91 488.431)" d="m0 0 3 1-.07 2.457C2.652 20.49 6.62 34.94 18 48l2.313 3.125C24.059 55.133 28.429 58 33 61a162 162 0 0 1-9 2v-3h-2v-3l-1.875-.375C18 56 18 56 16 54c-3.88 2.63-3.88 2.63-5.812 6.75L10 63l1.938.813C14 65 14 65 15 68h-3C-1.94 51.942-3.802 30.964-2.844 10.695-2.306 3.46-2.306 3.46 0 0"/><path style="stroke:none;stroke-width:1;stroke-dasharray:none;stroke-linecap:butt;stroke-dashoffset:0;stroke-linejoin:miter;stroke-miterlimit:4;fill:#fff;fill-rule:nonzero;opacity:1" vector-effect="non-scaling-stroke" transform="matrix(1 0 0 .77 335.91 492.281)" d="M0 0c1.938.813 1.938.813 4 2l1 3h2a1523 1523 0 0 1 3.375 7.063l.96 1.99c7.05 14.907 6.796 29.757 1.56 45.209C10.559 65.285 7.816 71.526 3 76H0c.798-4.31 3.07-7.532 5.387-11.191C8.855 58.486 9.477 52.827 9.5 45.75l.018-2.58C9.41 37.69 8.43 33.902 6 29a232 232 0 0 1-1.5-4.187C3.391 21.779 2.04 19.526 0 17v-2h-2c-3-3.462-3-3.462-3-6l-2-1 2.375-2.312C-1.927 3.09-1.927 3.09 0 0"/><path style="stroke:none;stroke-width:1;stroke-dasharray:none;stroke-linecap:butt;stroke-dashoffset:0;stroke-linejoin:miter;stroke-miterlimit:4;fill:#fff;fill-rule:nonzero;opacity:1" vector-effect="non-scaling-stroke" transform="matrix(1 0 0 .77 534.91 528.471)" d="M0 0h15v35H1z"/><path style="stroke:none;stroke-width:1;stroke-dasharray:none;stroke-linecap:butt;stroke-dashoffset:0;stroke-linejoin:miter;stroke-miterlimit:4;fill:#fff;fill-rule:nonzero;opacity:1" vector-effect="non-scaling-stroke" transform="matrix(1 0 0 .77 319.92 499.211)" d="M0 0c3.44 1.242 6.252 2.557 9 5v2h2c9.067 10.491 11.157 22.438 10.254 35.842C20.667 47.827 19.008 52.428 17 57h-2l-.375 1.813C14 61 14 61 12 64H9c.667-3.325 1.972-5.894 3.563-8.875 3.777-8.224 3.91-16.992.812-25.5-1.88-4.097-4.335-7.566-7.203-11.031C5 17 5 17 5 15l-5-2v-2l-4-1 1-2.312C-1.826 5.009-1.826 5.009-2 2z"/><path style="stroke:none;stroke-width:1;stroke-dasharray:none;stroke-linecap:butt;stroke-dashoffset:0;stroke-linejoin:miter;stroke-miterlimit:4;fill:#fff;fill-rule:nonzero;opacity:1" vector-effect="non-scaling-stroke" transform="matrix(1 0 0 .77 524.91 520.001)" d="M0 0h36v10H0z"/><path style="stroke:none;stroke-width:1;stroke-dasharray:none;stroke-linecap:butt;stroke-dashoffset:0;stroke-linejoin:miter;stroke-miterlimit:4;fill:#fff;fill-rule:nonzero;opacity:1" vector-effect="non-scaling-stroke" transform="matrix(1 0 0 .77 241.91 467.641)" d="m0 0 2 3C1.11 6.351.002 9.514-1.213 12.756-4.139 21.153-2.103 28.84 1 37c1.722 2.96 3.338 5.338 5.75 7.75C8 46 8 46 8 48l1.875.875C12 50 12 50 14 52l-3 1-2-4H7v-2l-6 1 1 3h-3c-1.316-1.504-1.316-1.504-2.562-3.562l-1.254-2.004c-3.064-6.3-3.57-12.31-3.559-19.184v-2.674C-8.255 16.774-7.12 11.104-4 5l1.008-2.219C-2 1-2 1 0 0"/><path style="stroke:none;stroke-width:1;stroke-dasharray:none;stroke-linecap:butt;stroke-dashoffset:0;stroke-linejoin:miter;stroke-miterlimit:4;fill:#fff;fill-rule:nonzero;opacity:1" vector-effect="non-scaling-stroke" transform="matrix(1 0 0 .77 349.92 509.991)" d="M0 0c4.43 7.328 3.468 18.096 1.875 26.188C-.465 35.558-3.695 46.213-11 53h-3c.798-4.31 3.07-7.532 5.387-11.191C-3.783 33.004-3.933 22.82-5 13l-1-1a100 100 0 0 1 0-5l5 3 1-3-2-2z"/><path style="stroke:none;stroke-width:1;stroke-dasharray:none;stroke-linecap:butt;stroke-dashoffset:0;stroke-linejoin:miter;stroke-miterlimit:4;fill:#fff;fill-rule:nonzero;opacity:1" vector-effect="non-scaling-stroke" transform="matrix(1 0 0 .77 212.91 488.431)" d="m0 0 3 1-.07 2.457c-.135 8.237-.011 16.439 3.14 24.168C7 30 7 30 7 33H5v-4H3l-1-4C.635 26.137.635 26.137.902 29.16l.035 3.903.028 3.91L1 40l5 1v2H3l.625 2.875L4 49l-2 2C-3.141 35.528-5.097 19.245-2 3z"/><path style="stroke:none;stroke-width:1;stroke-dasharray:none;stroke-linecap:butt;stroke-dashoffset:0;stroke-linejoin:miter;stroke-miterlimit:4;fill:#fff;fill-rule:nonzero;opacity:1" vector-effect="non-scaling-stroke" transform="matrix(1 0 0 .77 287.97 511.485)" d="M0 0c1.454.03 1.454.03 2.938.063v9c-9.377 2.344-19.715 1.447-29-1l1-3 5-1v-2l3.464-.184 4.473-.254 2.287-.12C-6.19 1.294-3.413.07 0 0"/><path style="stroke:none;stroke-width:1;stroke-dasharray:none;stroke-linecap:butt;stroke-dashoffset:0;stroke-linejoin:miter;stroke-miterlimit:4;fill:#fff;fill-rule:nonzero;opacity:1" vector-effect="non-scaling-stroke" transform="matrix(1 0 0 .77 237.91 463.791)" d="M0 0c.25 2.75.25 2.75 0 6l-4 4c-1.263 2.925-2.12 5.942-3 9l-1.187 3.5c-1.581 6.81-.93 12.756.742 19.48.523 2.376.601 4.596.445 7.02-2-1-2-1-2.852-3.328l-.773-2.922c-.26-.954-.52-1.908-.79-2.89-.555-2.716-.696-5.1-.585-7.86h-2l.07 2.336.055 3.039.07 3.023C-14 43-14 43-16 45c-.914-13.184 2.014-26.241 8-38h2l.313-1.812C-4.72 2.108-3.392 0 0 0"/><path style="stroke:none;stroke-width:1;stroke-dasharray:none;stroke-linecap:butt;stroke-dashoffset:0;stroke-linejoin:miter;stroke-miterlimit:4;fill:#fff;fill-rule:nonzero;opacity:1" vector-effect="non-scaling-stroke" transform="matrix(1 0 0 .77 221.91 524.621)" d="M0 0c2.993-.361 5.095-.594 8 0 1.731 1.5 2.927 3.133 4.281 4.977C15.511 8.779 19.846 11.299 24 14a162 162 0 0 1-9 2v-3h-2v-3l-1.875-.375C9 9 9 9 7 7c-3.88 2.63-3.88 2.63-5.812 6.75L1 16l1.938.813C5 18 5 18 6 21H3c-3.58-3.763-6.386-8.094-6.562-13.375C-3 4-3 4-1.5 2.063L0 1z"/><path style="stroke:none;stroke-width:1;stroke-dasharray:none;stroke-linecap:butt;stroke-dashoffset:0;stroke-linejoin:miter;stroke-miterlimit:4;fill:#fff;fill-rule:nonzero;opacity:1" vector-effect="non-scaling-stroke" transform="matrix(1 0 0 .77 336.91 517.691)" d="M0 0h3c3.476 10.427 1.3 23.212-3 33h-2l-.375 1.813C-3 37-3 37-5 40h-3c.667-3.325 1.972-5.894 3.563-8.875C-1.34 24.52-1.292 18.182-2 11l-1-1q-.062-3.5 0-7l4 2 1-2-3-1z"/><path style="stroke:none;stroke-width:1;stroke-dasharray:none;stroke-linecap:butt;stroke-dashoffset:0;stroke-linejoin:miter;stroke-miterlimit:4;fill:#fff;fill-rule:nonzero;opacity:1" vector-effect="non-scaling-stroke" transform="matrix(1 0 0 .77 388.91 534.631)" d="M0 0h17v10H0z"/><path style="stroke:none;stroke-width:1;stroke-dasharray:none;stroke-linecap:butt;stroke-dashoffset:0;stroke-linejoin:miter;stroke-miterlimit:4;fill:#fff;fill-rule:nonzero;opacity:1" vector-effect="non-scaling-stroke" transform="matrix(1 0 0 .77 502.91 533.861)" d="M0 0h16v9H0z"/><path style="stroke:none;stroke-width:1;stroke-dasharray:none;stroke-linecap:butt;stroke-dashoffset:0;stroke-linejoin:miter;stroke-miterlimit:4;fill:#fff;fill-rule:nonzero;opacity:1" vector-effect="non-scaling-stroke" transform="matrix(1 0 0 .77 513.91 470.721)" d="M0 0h16v9H0z"/><path style="stroke:none;stroke-width:1;stroke-dasharray:none;stroke-linecap:butt;stroke-dashoffset:0;stroke-linejoin:miter;stroke-miterlimit:4;fill:#fff;fill-rule:nonzero;opacity:1" vector-effect="non-scaling-stroke" transform="matrix(1 0 0 .77 223.92 488.431)" d="M0 0h2l.734 3.184C4.39 10.175 6.067 16.682 9.25 23.16c1.079 2.646 1.038 5.03.75 7.84l-4 1-1-7H3l-1-3H0c-.853-2.907-1.073-5.31-.879-8.328l.147-2.422.17-2.5.158-2.547Q-.21 3.101 0 0"/><path style="stroke:none;stroke-width:1;stroke-dasharray:none;stroke-linecap:butt;stroke-dashoffset:0;stroke-linejoin:miter;stroke-miterlimit:4;fill:#fff;fill-rule:nonzero;opacity:1" vector-effect="non-scaling-stroke" transform="matrix(1 0 0 .77 464.91 533.861)" d="M0 0h15v9H-1z"/><path style="stroke:none;stroke-width:1;stroke-dasharray:none;stroke-linecap:butt;stroke-dashoffset:0;stroke-linejoin:miter;stroke-miterlimit:4;fill:#fff;fill-rule:nonzero;opacity:1" vector-effect="non-scaling-stroke" transform="matrix(1 0 0 .77 230.91 501.521)" d="M0 0c2.527 1.264 2.851 2.36 4.063 4.875l1.035 2.117C6 9 6 9 7 12h2l-1 2H4l1 3c-.937 2.188-.937 2.188-2 4h2l2 6H5c-4-5.412-4-5.412-4-8h-2c-2.983-4.715-4.776-8.276-5-14l2-2v5h2l2 6c2.27-2.655 2.27-2.655 1.688-4.75L1 7C.65 4.67.314 2.336 0 0"/><path style="stroke:none;stroke-width:1;stroke-dasharray:none;stroke-linecap:butt;stroke-dashoffset:0;stroke-linejoin:miter;stroke-miterlimit:4;fill:#fff;fill-rule:nonzero;opacity:1" vector-effect="non-scaling-stroke" transform="matrix(1 0 0 .77 240.1 512.255)" d="m0 0 1.813 1.063v2L3.75 4c2.063 1.063 2.063 1.063 3.063 2.063q.061 2.5 0 5c-3.371 1.498-5.205 2-9 2l-2-6h-2l1-7c3-1 3-1 5.187-.063"/><path style="stroke:none;stroke-width:1;stroke-dasharray:none;stroke-linecap:butt;stroke-dashoffset:0;stroke-linejoin:miter;stroke-miterlimit:4;fill:#fff;fill-rule:nonzero;opacity:1" vector-effect="non-scaling-stroke" transform="matrix(1 0 0 .77 362.91 499.211)" d="M0 0h1c2.269 11.509 2.086 23.958-2 35h-3V17l2 1z"/><path style="stroke:none;stroke-width:1;stroke-dasharray:none;stroke-linecap:butt;stroke-dashoffset:0;stroke-linejoin:miter;stroke-miterlimit:4;fill:#fff;fill-rule:nonzero;opacity:1" vector-effect="non-scaling-stroke" transform="matrix(1 0 0 .77 254.91 521.541)" d="M0 0q2.188.465 4.375.938l2.46.527C9 2 9 2 11 3c10.54 1.48 19.745.497 30-2 3 4.75 3 4.75 3 7h-2l-1-4-3.812.375c-.708.07-1.416.14-2.145.21C32.7 4.928 32.7 4.928 30 7c-10.467.988-20.612-.036-30-5z"/><path style="stroke:none;stroke-width:1;stroke-dasharray:none;stroke-linecap:butt;stroke-dashoffset:0;stroke-linejoin:miter;stroke-miterlimit:4;fill:#fff;fill-rule:nonzero;opacity:1" vector-effect="non-scaling-stroke" transform="matrix(1 0 0 .77 248.91 503.831)" d="M0 0v2h2c2.628 2.31 3.88 3.64 5 7l2 2c-7.036 1.456-7.036 1.456-11.437-.625C-5.225 7.792-5.804 6.723-6 3V1c2-1 2-1 6-1"/><path style="stroke:none;stroke-width:1;stroke-dasharray:none;stroke-linecap:butt;stroke-dashoffset:0;stroke-linejoin:miter;stroke-miterlimit:4;fill:#fff;fill-rule:nonzero;opacity:1" vector-effect="non-scaling-stroke" transform="matrix(1 0 0 .77 310.91 560.041)" d="M0 0c-14.863 4.48-28.713 5.698-44 2V1c.817.01 1.634.02 2.475.032 3.717.041 7.433.067 11.15.093l3.895.05 3.77.02 3.459.032C-15.847.99-13.186.187-10-1c4.289-1.03 6.184-1.13 10 1"/><path style="stroke:none;stroke-width:1;stroke-dasharray:none;stroke-linecap:butt;stroke-dashoffset:0;stroke-linejoin:miter;stroke-miterlimit:4;fill:#fff;fill-rule:nonzero;opacity:1" vector-effect="non-scaling-stroke" transform="matrix(1 0 0 .77 237.92 463.791)" d="M0 0c.25 2.75.25 2.75 0 6l-4 4c-1.221 2.938-2.137 5.94-3 9h-2l-1 3-2-1c.539-5.277 1.773-9.256 4-14h2l.313-1.812C-4.72 2.108-3.392 0 0 0"/><path style="stroke:none;stroke-width:1;stroke-dasharray:none;stroke-linecap:butt;stroke-dashoffset:0;stroke-linejoin:miter;stroke-miterlimit:4;fill:#fff;fill-rule:nonzero;opacity:1" vector-effect="non-scaling-stroke" transform="matrix(1 0 0 .77 228.91 524.621)" d="M0 0c.695.726 1.39 1.451 2.105 2.2 2.85 2.849 5.961 5.222 9.208 7.613l1.666 1.232Q14.986 12.527 17 14a162 162 0 0 1-9 2v-3H6v-3l-1.812-.25C1.293 8.758.42 7.69-1 5c.313-2.75.313-2.75 1-5"/><path style="stroke:none;stroke-width:1;stroke-dasharray:none;stroke-linecap:butt;stroke-dashoffset:0;stroke-linejoin:miter;stroke-miterlimit:4;fill:#fff;fill-rule:nonzero;opacity:1" vector-effect="non-scaling-stroke" transform="matrix(1 0 0 .77 213.92 506.911)" d="m0 0 2 1v4h2v4h2v8l-6-1C-2.286 4.571-2.286 4.571 0 0"/><path style="stroke:none;stroke-width:1;stroke-dasharray:none;stroke-linecap:butt;stroke-dashoffset:0;stroke-linejoin:miter;stroke-miterlimit:4;fill:#fff;fill-rule:nonzero;opacity:1" vector-effect="non-scaling-stroke" transform="matrix(1 0 0 .77 212.91 488.431)" d="m0 0 3 1v20l-2-1v-5c-2.51 1.255-2.871 2.5-4 5q.172-4.157.375-8.312c.03-.786.062-1.572.094-2.381l.117-2.295.095-2.11C-2 3-2 3 0 0"/><path style="stroke:none;stroke-width:1;stroke-dasharray:none;stroke-linecap:butt;stroke-dashoffset:0;stroke-linejoin:miter;stroke-miterlimit:4;fill:#fff;fill-rule:nonzero;opacity:1" vector-effect="non-scaling-stroke" transform="matrix(1 0 0 .77 349.91 509.991)" d="M0 0c5.254 8.692 3.047 20.942.887 30.27C0 33 0 33-2 35a498 498 0 0 1-.125-5.75l-.07-3.234c.197-3.05.852-4.36 2.195-7.016.316-2.98.316-2.98.25-6.125L.266 9.68C.27 6.848.27 6.848-2 5z"/><path style="stroke:none;stroke-width:1;stroke-dasharray:none;stroke-linecap:butt;stroke-dashoffset:0;stroke-linejoin:miter;stroke-miterlimit:4;fill:#fff;fill-rule:nonzero;opacity:1" vector-effect="non-scaling-stroke" transform="matrix(1 0 0 .77 289.91 513.071)" d="M0 0h2l2 7c-6.142 2.73-11.552 3.302-18.187 3.313l-2.34.015C-21.058 10.273-24.736 9.708-29 8V7H1z"/><path style="stroke:none;stroke-width:1;stroke-dasharray:none;stroke-linecap:butt;stroke-dashoffset:0;stroke-linejoin:miter;stroke-miterlimit:4;fill:#fff;fill-rule:nonzero;opacity:1" vector-effect="non-scaling-stroke" transform="matrix(1 0 0 .77 361.91 502.291)" d="M0 0c1.3 3.815.894 7.276.563 11.25l-.31 3.828L0 18l-2-2v-2l-2-1c-.852-2.504-.852-2.504-1.625-5.562-.26-1.012-.52-2.024-.79-3.067L-7 2a100 100 0 0 1 5 0l1 1z"/><path style="stroke:none;stroke-width:1;stroke-dasharray:none;stroke-linecap:butt;stroke-dashoffset:0;stroke-linejoin:miter;stroke-miterlimit:4;fill:#fff;fill-rule:nonzero;opacity:1" vector-effect="non-scaling-stroke" transform="matrix(1 0 0 .77 301.91 539.251)" d="m0 0 2 1c.625 2.063.625 2.063 1 4l-1.863-.035-2.45-.027-2.425-.036C-6.168 4.903-6.168 4.903-9 6c-1.408.08-2.82.108-4.23.098l-2.432-.01-2.525-.026-2.561-.013Q-23.874 6.029-27 6V5a2543 2543 0 0 0 10.125-1.375l2.883-.383C-9.09 2.562-4.697 1.606 0 0"/><path style="stroke:none;stroke-width:1;stroke-dasharray:none;stroke-linecap:butt;stroke-dashoffset:0;stroke-linejoin:miter;stroke-miterlimit:4;fill:#fff;fill-rule:nonzero;opacity:1" vector-effect="non-scaling-stroke" transform="matrix(1 0 0 .77 258.91 533.861)" d="M0 0c3.688.11 7.375.241 11.063.375l3.146.094C19.806.682 24.702 1.15 30 3v1c-9.857 1.38-18.472.798-28-2z"/><path style="stroke:none;stroke-width:1;stroke-dasharray:none;stroke-linecap:butt;stroke-dashoffset:0;stroke-linejoin:miter;stroke-miterlimit:4;fill:#fff;fill-rule:nonzero;opacity:1" vector-effect="non-scaling-stroke" transform="matrix(1 0 0 .77 324.91 502.291)" d="m0 0 4 1v2h2l-.437 1.898L5 7.375l-.562 2.46C3.934 11.96 3.934 11.96 4 14H2C.188 9.981-1.335 6.389-2 2h2z"/><path style="stroke:none;stroke-width:1;stroke-dasharray:none;stroke-linecap:butt;stroke-dashoffset:0;stroke-linejoin:miter;stroke-miterlimit:4;fill:#fff;fill-rule:nonzero;opacity:1" vector-effect="non-scaling-stroke" transform="matrix(1 0 0 .77 362.91 499.211)" d="M0 0h1c1.063 5.173 1.117 10.124 1.063 15.375l-.014 2.52Q2.029 20.948 2 24l-2 1C-3.218 18.564-1.137 6.962 0 0"/><path style="stroke:none;stroke-width:1;stroke-dasharray:none;stroke-linecap:butt;stroke-dashoffset:0;stroke-linejoin:miter;stroke-miterlimit:4;fill:#fff;fill-rule:nonzero;opacity:1" vector-effect="non-scaling-stroke" transform="matrix(1 0 0 .77 291.91 510.761)" d="M0 0v1h-7l-1 2c-5.652 1.107-11.382 1.367-17 0V1l2.598-.148C-15.087.48-15.087.48-8-1.188-4.513-2.131-3.12-1.701 0 0"/><path style="stroke:none;stroke-width:1;stroke-dasharray:none;stroke-linecap:butt;stroke-dashoffset:0;stroke-linejoin:miter;stroke-miterlimit:4;fill:#fff;fill-rule:nonzero;opacity:1" vector-effect="non-scaling-stroke" transform="matrix(1 0 0 .77 304.91 539.251)" d="M0 0h2l3.71 11.133.664 1.97a228 228 0 0 1 1.665 5.327c.682 2.715.682 2.715 2.961 3.57l-2 4H7l-.078-1.828-.172-2.422-.14-2.39c-.43-2.519-.43-2.519-2.579-4.235C1.315 12.284 1.213 10.109.75 6.25.6 5.08.45 3.91.297 2.703z"/><path style="stroke:none;stroke-width:1;stroke-dasharray:none;stroke-linecap:butt;stroke-dashoffset:0;stroke-linejoin:miter;stroke-miterlimit:4;fill:#fff;fill-rule:nonzero;opacity:1" vector-effect="non-scaling-stroke" transform="matrix(1 0 0 .77 328.91 490.741)" d="M0 0c4 0 4 0 8 1l-6 9-3-1c-.81-2.915-1.218-4.461-.062-7.312z"/><path style="stroke:none;stroke-width:1;stroke-dasharray:none;stroke-linecap:butt;stroke-dashoffset:0;stroke-linejoin:miter;stroke-miterlimit:4;fill:#fff;fill-rule:nonzero;opacity:1" vector-effect="non-scaling-stroke" transform="matrix(1 0 0 .77 242.91 496.901)" d="m0 0 1.813 2.313c2.027 2.6 2.027 2.6 3.937 4.374C7 8 7 8 7 10l1.875.875C11 12 11 12 13 14l-3 1-2-4H6V9l-6 1 1 3h-3l-1-3 1.5-1.062C.73 6.056.2 3.53 0 0"/><path style="stroke:none;stroke-width:1;stroke-dasharray:none;stroke-linecap:butt;stroke-dashoffset:0;stroke-linejoin:miter;stroke-miterlimit:4;fill:#fff;fill-rule:nonzero;opacity:1" vector-effect="non-scaling-stroke" transform="matrix(1 0 0 .77 342.91 539.251)" d="m0 0 .375 1.938L1 4l2 1A298 298 0 0 1 .25 9.438l-1.547 2.496C-3.179 14.217-4.116 14.655-7 15c.651-3.515 2.129-5.977 4-9a398 398 0 0 0 3-6"/><path style="stroke:none;stroke-width:1;stroke-dasharray:none;stroke-linecap:butt;stroke-dashoffset:0;stroke-linejoin:miter;stroke-miterlimit:4;fill:#fff;fill-rule:nonzero;opacity:1" vector-effect="non-scaling-stroke" transform="matrix(1 0 0 .77 250.91 506.911)" d="M0 0c1.938.813 1.938.813 4 2l1 3 2 2c-5.373.969-5.373.969-8 1-2-1.437-2-1.437-3-3l2-3h2z"/><path style="stroke:none;stroke-width:1;stroke-dasharray:none;stroke-linecap:butt;stroke-dashoffset:0;stroke-linejoin:miter;stroke-miterlimit:4;fill:#fff;fill-rule:nonzero;opacity:1" vector-effect="non-scaling-stroke" transform="matrix(1 0 0 .77 333.91 537.711)" d="M0 0c3 3.625 3 3.625 3 7H1L.625 8.813C0 11 0 11-2 14h-3c.717-3.232 1.813-6.187 3.063-9.25L-.84 2.047z"/><path style="stroke:none;stroke-width:1;stroke-dasharray:none;stroke-linecap:butt;stroke-dashoffset:0;stroke-linejoin:miter;stroke-miterlimit:4;fill:#fff;fill-rule:nonzero;opacity:1" vector-effect="non-scaling-stroke" transform="matrix(1 0 0 .77 246.91 517.691)" d="M0 0v4l-7 2-2-6c3.069-1.534 5.7-.55 9 0"/><path style="stroke:none;stroke-width:1;stroke-dasharray:none;stroke-linecap:butt;stroke-dashoffset:0;stroke-linejoin:miter;stroke-miterlimit:4;fill:#fff;fill-rule:nonzero;opacity:1" vector-effect="non-scaling-stroke" transform="matrix(1 0 0 .77 228.91 503.831)" d="M0 0c3 1 3 1 4.188 2.688C5.193 5.55 5.137 7.988 5 11l-4 1A558 558 0 0 1-.062 7.125L-.66 4.383C-1 2-1 2 0 0"/><path style="stroke:none;stroke-width:1;stroke-dasharray:none;stroke-linecap:butt;stroke-dashoffset:0;stroke-linejoin:miter;stroke-miterlimit:4;fill:#fff;fill-rule:nonzero;opacity:1" vector-effect="non-scaling-stroke" transform="matrix(1 0 0 .77 337.91 526.161)" d="m0 0 2 1c.45 1.926.45 1.926.688 4.313l.261 2.363C3 9.993 2.672 11.793 2 14h-3q-.04-2.937-.062-5.875l-.036-3.305C-1 2-1 2 0 0"/><path style="stroke:none;stroke-width:1;stroke-dasharray:none;stroke-linecap:butt;stroke-dashoffset:0;stroke-linejoin:miter;stroke-miterlimit:4;fill:#fff;fill-rule:nonzero;opacity:1" vector-effect="non-scaling-stroke" transform="matrix(1 0 0 .77 237.91 486.121)" d="M0 0c2.01 3.015 2.726 5.215 3.625 8.688.26.993.52 1.987.79 3.011.192.76.386 1.519.585 2.301l-3 1c-2.01-1.927-2.938-3.414-3.234-6.2C-1.274 2.55-1.274 2.55 0 0"/><path style="stroke:none;stroke-width:1;stroke-dasharray:none;stroke-linecap:butt;stroke-dashoffset:0;stroke-linejoin:miter;stroke-miterlimit:4;fill:#fff;fill-rule:nonzero;opacity:1" vector-effect="non-scaling-stroke" transform="matrix(1 0 0 .77 241.91 467.641)" d="m0 0 2 3C.938 6.625.938 6.625-1 10c-2.687.938-2.687.938-5 1 2.233-7.018 2.233-7.018 4-10z"/><path style="stroke:none;stroke-width:1;stroke-dasharray:none;stroke-linecap:butt;stroke-dashoffset:0;stroke-linejoin:miter;stroke-miterlimit:4;fill:#fff;fill-rule:nonzero;opacity:1" vector-effect="non-scaling-stroke" transform="matrix(1 0 0 .77 254.91 521.541)" d="M0 0q2.188.465 4.375.938l2.46.527C9 2 9 2 11 3c1.704.226 3.413.409 5.125.563l2.758.253L21 4v1C13.328 6.314 6.93 6.042 0 2z"/><path style="stroke:none;stroke-width:1;stroke-dasharray:none;stroke-linecap:butt;stroke-dashoffset:0;stroke-linejoin:miter;stroke-miterlimit:4;fill:#fff;fill-rule:nonzero;opacity:1" vector-effect="non-scaling-stroke" transform="matrix(1 0 0 .77 230.91 501.521)" d="M0 0c2.527 1.264 2.851 2.36 4.063 4.875l1.035 2.117C6 9 6 9 7 12h2l-1 2-5-1a479 479 0 0 1-1.5-4.25L.656 6.36C0 4 0 4 0 0"/><path style="stroke:none;stroke-width:1;stroke-dasharray:none;stroke-linecap:butt;stroke-dashoffset:0;stroke-linejoin:miter;stroke-miterlimit:4;fill:#fff;fill-rule:nonzero;opacity:1" vector-effect="non-scaling-stroke" transform="matrix(1 0 0 .77 348.91 512.301)" d="M0 0c1.313 2.875 1.313 2.875 2 6L0 9c-5.571-5.143-5.571-5.143-6-9 3-1 3-1 6 0"/><path style="stroke:none;stroke-width:1;stroke-dasharray:none;stroke-linecap:butt;stroke-dashoffset:0;stroke-linejoin:miter;stroke-miterlimit:4;fill:#fff;fill-rule:nonzero;opacity:1" vector-effect="non-scaling-stroke" transform="matrix(1 0 0 .77 253.91 507.681)" d="M0 0c4.389.665 7.981 2.188 12 4v1C4.375 6.25 4.375 6.25 1 4 .313 1.875.313 1.875 0 0"/><path style="stroke:none;stroke-width:1;stroke-dasharray:none;stroke-linecap:butt;stroke-dashoffset:0;stroke-linejoin:miter;stroke-miterlimit:4;fill:#fff;fill-rule:nonzero;opacity:1" vector-effect="non-scaling-stroke" transform="matrix(1 0 0 .77 225.91 503.831)" d="M0 0h1v5h2l3 11H4C.995 11.25-.662 7.745-1 2z"/><path style="stroke:none;stroke-width:1;stroke-dasharray:none;stroke-linecap:butt;stroke-dashoffset:0;stroke-linejoin:miter;stroke-miterlimit:4;fill:#fff;fill-rule:nonzero;opacity:1" vector-effect="non-scaling-stroke" transform="matrix(1 0 0 .77 310.91 560.041)" d="M0 0c-5.487 1.868-10.222 2.236-16 2l1-2c2.363-.703 2.363-.703 5.313-1.25l2.925-.578C-3.78-2.014-2.483-1.581 0 0"/><path style="stroke:none;stroke-width:1;stroke-dasharray:none;stroke-linecap:butt;stroke-dashoffset:0;stroke-linejoin:miter;stroke-miterlimit:4;fill:#fff;fill-rule:nonzero;opacity:1" vector-effect="non-scaling-stroke" transform="matrix(1 0 0 .77 285.91 493.821)" d="m0 0 2 1-1 4h-2l-2 5c-1.562-1.75-1.562-1.75-3-4 .313-2.25.313-2.25 1-4h5z"/><path style="stroke:none;stroke-width:1;stroke-dasharray:none;stroke-linecap:butt;stroke-dashoffset:0;stroke-linejoin:miter;stroke-miterlimit:4;fill:#fff;fill-rule:nonzero;opacity:1" vector-effect="non-scaling-stroke" transform="matrix(1 0 0 .77 237.91 474.571)" d="m0 0 3 2-2 8-2-3-3 2c1.75-6.75 1.75-6.75 4-9"/><path style="stroke:none;stroke-width:1;stroke-dasharray:none;stroke-linecap:butt;stroke-dashoffset:0;stroke-linejoin:miter;stroke-miterlimit:4;fill:#fff;fill-rule:nonzero;opacity:1" vector-effect="non-scaling-stroke" transform="matrix(1 0 0 .77 228.91 473.801)" d="m0 0 3 1-1 5H0l-1 3-2-1c.256-2.343.593-4.678 1-7z"/><path style="stroke:none;stroke-width:1;stroke-dasharray:none;stroke-linecap:butt;stroke-dashoffset:0;stroke-linejoin:miter;stroke-miterlimit:4;fill:#fff;fill-rule:nonzero;opacity:1" vector-effect="non-scaling-stroke" transform="matrix(1 0 0 .77 239.91 550.801)" d="m0 0 6 1v2l8 2-1 3C7.737 6.588 4.244 4.31 0 1z"/><path style="stroke:none;stroke-width:1;stroke-dasharray:none;stroke-linecap:butt;stroke-dashoffset:0;stroke-linejoin:miter;stroke-miterlimit:4;fill:#fff;fill-rule:nonzero;opacity:1" vector-effect="non-scaling-stroke" transform="matrix(1 0 0 .77 260.91 540.791)" d="m0 0 14 2c-2.495 2.495-3.673 2.36-7.125 2.625l-2.758.227L2 5z"/><path style="stroke:none;stroke-width:1;stroke-dasharray:none;stroke-linecap:butt;stroke-dashoffset:0;stroke-linejoin:miter;stroke-miterlimit:4;fill:#fff;fill-rule:nonzero;opacity:1" vector-effect="non-scaling-stroke" transform="matrix(1 0 0 .77 246.91 511.531)" d="m0 0 7 2 1 4h5l1 3C8.257 7.71 4.578 5.737 0 2z"/><path style="stroke:none;stroke-width:1;stroke-dasharray:none;stroke-linecap:butt;stroke-dashoffset:0;stroke-linejoin:miter;stroke-miterlimit:4;fill:#fff;fill-rule:nonzero;opacity:1" vector-effect="non-scaling-stroke" transform="matrix(1 0 0 .77 335.91 526.161)" d="M0 0h1v14h2l-1 5-3-1z"/><path style="stroke:none;stroke-width:1;stroke-dasharray:none;stroke-linecap:butt;stroke-dashoffset:0;stroke-linejoin:miter;stroke-miterlimit:4;fill:#fff;fill-rule:nonzero;opacity:1" vector-effect="non-scaling-stroke" transform="matrix(1 0 0 .77 265.91 510.761)" d="m0 0 2 1v4l-2.437.875C-3.133 6.733-3.133 6.733-4 9l3 1h-4V5h2l.938-1.937C-1 1-1 1 0 0"/><path style="stroke:none;stroke-width:1;stroke-dasharray:none;stroke-linecap:butt;stroke-dashoffset:0;stroke-linejoin:miter;stroke-miterlimit:4;fill:#fff;fill-rule:nonzero;opacity:1" vector-effect="non-scaling-stroke" transform="matrix(1 0 0 .77 241.91 496.901)" d="M0 0c1.858 3.135 2.201 5.375 2 9l-4 1V1z"/><path style="stroke:none;stroke-width:1;stroke-dasharray:none;stroke-linecap:butt;stroke-dashoffset:0;stroke-linejoin:miter;stroke-miterlimit:4;fill:#fff;fill-rule:nonzero;opacity:1" vector-effect="non-scaling-stroke" transform="matrix(1 0 0 .77 219.91 513.841)" d="M0 0c2.765 3.457 4.85 7.143 7 11H3L2 8 0 7z"/><path style="stroke:none;stroke-width:1;stroke-dasharray:none;stroke-linecap:butt;stroke-dashoffset:0;stroke-linejoin:miter;stroke-miterlimit:4;fill:#fff;fill-rule:nonzero;opacity:1" vector-effect="non-scaling-stroke" transform="matrix(1 0 0 .77 235.91 479.191)" d="m0 0 2 1v10C-.572 9.714-1.01 8.666-2 6c.34-2.308.958-3.915 2-6"/><path style="stroke:none;stroke-width:1;stroke-dasharray:none;stroke-linecap:butt;stroke-dashoffset:0;stroke-linejoin:miter;stroke-miterlimit:4;fill:#fff;fill-rule:nonzero;opacity:1" vector-effect="non-scaling-stroke" transform="matrix(1 0 0 .77 224.91 478.421)" d="m0 0 3 2 2-2-2 9-1-3-3 1z"/><path style="stroke:none;stroke-width:1;stroke-dasharray:none;stroke-linecap:butt;stroke-dashoffset:0;stroke-linejoin:miter;stroke-miterlimit:4;fill:#fff;fill-rule:nonzero;opacity:1" vector-effect="non-scaling-stroke" transform="matrix(1 0 0 .77 319.91 506.911)" d="M0 0c2.375.313 2.375.313 5 1 2 3 2 3 1.625 5.188L6 8 5 5C2.496 3.781 2.496 3.781 0 3z"/><path style="stroke:none;stroke-width:1;stroke-dasharray:none;stroke-linecap:butt;stroke-dashoffset:0;stroke-linejoin:miter;stroke-miterlimit:4;fill:#fff;fill-rule:nonzero;opacity:1" vector-effect="non-scaling-stroke" transform="matrix(1 0 0 .77 218.91 533.091)" d="M0 0h3l.25 2.375c.458 2.77.458 2.77 2.75 3.75L8 7l1 3H6C4.395 7.813 4.395 7.813 2.813 5L1.207 2.188z"/><path style="stroke:none;stroke-width:1;stroke-dasharray:none;stroke-linecap:butt;stroke-dashoffset:0;stroke-linejoin:miter;stroke-miterlimit:4;fill:#fff;fill-rule:nonzero;opacity:1" vector-effect="non-scaling-stroke" transform="matrix(1 0 0 .77 267.91 470.721)" d="m0 0 1 3 7 1C5.082 5.945 3.375 6.453 0 7a129 129 0 0 1-1-6z"/><path style="stroke:none;stroke-width:1;stroke-dasharray:none;stroke-linecap:butt;stroke-dashoffset:0;stroke-linejoin:miter;stroke-miterlimit:4;fill:#fff;fill-rule:nonzero;opacity:1" vector-effect="non-scaling-stroke" transform="matrix(1 0 0 .77 309.91 548.491)" d="M0 0c2.54 2.983 3.28 5.196 4 9l2 1-2 4H2l-.184-1.793C1.38 8.09.913 4.045 0 0"/><path style="stroke:none;stroke-width:1;stroke-dasharray:none;stroke-linecap:butt;stroke-dashoffset:0;stroke-linejoin:miter;stroke-miterlimit:4;fill:#fff;fill-rule:nonzero;opacity:1" vector-effect="non-scaling-stroke" transform="matrix(1 0 0 .77 246.91 536.171)" d="m0 0 13 5v1L6 7 5 5c-2.025-.652-2.025-.652-4-1z"/><path style="stroke:none;stroke-width:1;stroke-dasharray:none;stroke-linecap:butt;stroke-dashoffset:0;stroke-linejoin:miter;stroke-miterlimit:4;fill:#fff;fill-rule:nonzero;opacity:1" vector-effect="non-scaling-stroke" transform="matrix(1 0 0 .77 344.92 535.401)" d="m0 0 1 3h2c-.506 2.169-1 4-2 6h-2c-.098-6.152-.098-6.152 0-8z"/><path style="stroke:none;stroke-width:1;stroke-dasharray:none;stroke-linecap:butt;stroke-dashoffset:0;stroke-linejoin:miter;stroke-miterlimit:4;fill:#fff;fill-rule:nonzero;opacity:1" vector-effect="non-scaling-stroke" transform="matrix(1 0 0 .77 239.91 512.301)" d="m0 0 2 1v2l1.938.875C6 5 6 5 7 7L0 6z"/><path style="stroke:none;stroke-width:1;stroke-dasharray:none;stroke-linecap:butt;stroke-dashoffset:0;stroke-linejoin:miter;stroke-miterlimit:4;fill:#fff;fill-rule:nonzero;opacity:1" vector-effect="non-scaling-stroke" transform="matrix(1 0 0 .77 228.91 524.621)" d="m0 0 10 10C6.014 8.633 3.036 6.949 0 4z"/><path style="stroke:none;stroke-width:1;stroke-dasharray:none;stroke-linecap:butt;stroke-dashoffset:0;stroke-linejoin:miter;stroke-miterlimit:4;fill:#fff;fill-rule:nonzero;opacity:1" vector-effect="non-scaling-stroke" transform="matrix(1 0 0 .77 333.91 509.221)" d="M0 0c3.35 3.35 3.895 5.494 5 10L1 9z"/><path style="stroke:none;stroke-width:1;stroke-dasharray:none;stroke-linecap:butt;stroke-dashoffset:0;stroke-linejoin:miter;stroke-miterlimit:4;fill:#fff;fill-rule:nonzero;opacity:1" vector-effect="non-scaling-stroke" transform="matrix(1 0 0 .77 211.91 499.981)" d="M0 0h2L1 9h-2c-1.033-2.788-1.045-3.868-.062-6.75z"/><path style="stroke:none;stroke-width:1;stroke-dasharray:none;stroke-linecap:butt;stroke-dashoffset:0;stroke-linejoin:miter;stroke-miterlimit:4;fill:#fff;fill-rule:nonzero;opacity:1" vector-effect="non-scaling-stroke" transform="matrix(1 0 0 .77 230.91 469.951)" d="M0 0h2v7l-5-1c1.875-4.875 1.875-4.875 3-6"/><path style="stroke:none;stroke-width:1;stroke-dasharray:none;stroke-linecap:butt;stroke-dashoffset:0;stroke-linejoin:miter;stroke-miterlimit:4;fill:#fff;fill-rule:nonzero;opacity:1" vector-effect="non-scaling-stroke" transform="matrix(1 0 0 .77 288.91 536.171)" d="M0 0v1c-1.77.054-3.541.093-5.312.125l-2.989.07C-11 1-11 1-14-1c5.34-1.335 8.84-.513 14 1"/><path style="stroke:none;stroke-width:1;stroke-dasharray:none;stroke-linecap:butt;stroke-dashoffset:0;stroke-linejoin:miter;stroke-miterlimit:4;fill:#fff;fill-rule:nonzero;opacity:1" vector-effect="non-scaling-stroke" transform="matrix(1 0 0 .77 227.91 490.741)" d="M0 0h1c2.296 9.41 2.296 9.41 2 14-2-1-2-1-3-4a99 99 0 0 1-.062-5.187l.027-2.731z"/><path style="stroke:none;stroke-width:1;stroke-dasharray:none;stroke-linecap:butt;stroke-dashoffset:0;stroke-linejoin:miter;stroke-miterlimit:4;fill:#fff;fill-rule:nonzero;opacity:1" vector-effect="non-scaling-stroke" transform="matrix(1 0 0 .77 272.91 480.731)" d="m0 0 5 2-3 6C0 6 0 6-.125 2.875z"/><path style="stroke:none;stroke-width:1;stroke-dasharray:none;stroke-linecap:butt;stroke-dashoffset:0;stroke-linejoin:miter;stroke-miterlimit:4;fill:#fff;fill-rule:nonzero;opacity:1" vector-effect="non-scaling-stroke" transform="matrix(1 0 0 .77 243.91 522.311)" d="m0 0-1 2a140 140 0 0 0-1 4 91 91 0 0 1-4-4V0c3.75-1.125 3.75-1.125 6 0"/><path style="stroke:none;stroke-width:1;stroke-dasharray:none;stroke-linecap:butt;stroke-dashoffset:0;stroke-linejoin:miter;stroke-miterlimit:4;fill:#fff;fill-rule:nonzero;opacity:1" vector-effect="non-scaling-stroke" transform="matrix(1 0 0 .77 354.91 503.831)" d="m0 0 4 1v2l2 1-1 2H3L2 8z"/><path style="stroke:none;stroke-width:1;stroke-dasharray:none;stroke-linecap:butt;stroke-dashoffset:0;stroke-linejoin:miter;stroke-miterlimit:4;fill:#fff;fill-rule:nonzero;opacity:1" vector-effect="non-scaling-stroke" transform="matrix(1 0 0 .77 324.91 493.051)" d="M0 0h2v4l2 1v2C1.116 5.707-.872 4.34-3 2h3z"/><path style="stroke:none;stroke-width:1;stroke-dasharray:none;stroke-linecap:butt;stroke-dashoffset:0;stroke-linejoin:miter;stroke-miterlimit:4;fill:#fff;fill-rule:nonzero;opacity:1" vector-effect="non-scaling-stroke" transform="matrix(1 0 0 .77 358.91 512.301)" d="M0 0c2 1 2 1 2.625 2.813C3 5 3 5 3 9L0 8z"/><path style="stroke:none;stroke-width:1;stroke-dasharray:none;stroke-linecap:butt;stroke-dashoffset:0;stroke-linejoin:miter;stroke-miterlimit:4;fill:#fff;fill-rule:nonzero;opacity:1" vector-effect="non-scaling-stroke" transform="matrix(1 0 0 .77 291.91 510.77)" d="M0 0v1h-12c4.734-3.156 6.808-3.452 12-1"/><path style="stroke:none;stroke-width:1;stroke-dasharray:none;stroke-linecap:butt;stroke-dashoffset:0;stroke-linejoin:miter;stroke-miterlimit:4;fill:#fff;fill-rule:nonzero;opacity:1" vector-effect="non-scaling-stroke" transform="matrix(1 0 0 .77 231.91 516.151)" d="M0 0h2v2h2l2 6H4C0 2.588 0 2.588 0 0"/><path style="stroke:none;stroke-width:1;stroke-dasharray:none;stroke-linecap:butt;stroke-dashoffset:0;stroke-linejoin:miter;stroke-miterlimit:4;fill:#fff;fill-rule:nonzero;opacity:1" vector-effect="non-scaling-stroke" transform="matrix(1 0 0 .77 289.91 513.071)" d="M0 0h2l2 7-4 1z"/><path style="stroke:none;stroke-width:1;stroke-dasharray:none;stroke-linecap:butt;stroke-dashoffset:0;stroke-linejoin:miter;stroke-miterlimit:4;fill:#fff;fill-rule:nonzero;opacity:1" vector-effect="non-scaling-stroke" transform="matrix(1 0 0 .77 274.91 487.661)" d="M0 0h2l2 5h5C6 7 6 7 3.938 7 2 6 2 6 .75 2.938z"/><path style="stroke:none;stroke-width:1;stroke-dasharray:none;stroke-linecap:butt;stroke-dashoffset:0;stroke-linejoin:miter;stroke-miterlimit:4;fill:#fff;fill-rule:nonzero;opacity:1" vector-effect="non-scaling-stroke" transform="matrix(1 0 0 .77 226.91 541.561)" d="M0 0c2.915 1.074 4.778 1.778 7 4L6 7C1.125 2.25 1.125 2.25 0 0"/><path style="stroke:none;stroke-width:1;stroke-dasharray:none;stroke-linecap:butt;stroke-dashoffset:0;stroke-linejoin:miter;stroke-miterlimit:4;fill:#fff;fill-rule:nonzero;opacity:1" vector-effect="non-scaling-stroke" transform="matrix(1 0 0 .77 337.91 526.161)" d="m0 0 2 1a109 109 0 0 1-1 7l-2 1c-.125-6.75-.125-6.75 1-9"/><path style="stroke:none;stroke-width:1;stroke-dasharray:none;stroke-linecap:butt;stroke-dashoffset:0;stroke-linejoin:miter;stroke-miterlimit:4;fill:#fff;fill-rule:nonzero;opacity:1" vector-effect="non-scaling-stroke" transform="matrix(1 0 0 .77 336.91 517.691)" d="M0 0h3c1.158 3.473 1.069 6.36 1 10H3l-.312-2.812C1.993 3.968 1.523 2.973-1 1z"/><path style="stroke:none;stroke-width:1;stroke-dasharray:none;stroke-linecap:butt;stroke-dashoffset:0;stroke-linejoin:miter;stroke-miterlimit:4;fill:#fff;fill-rule:nonzero;opacity:1" vector-effect="non-scaling-stroke" transform="matrix(1 0 0 .77 230.91 501.521)" d="M0 0c3.059 1.53 3.69 3.942 5 7L4 9 1 7C.313 3.375.313 3.375 0 0"/><path style="stroke:none;stroke-width:1;stroke-dasharray:none;stroke-linecap:butt;stroke-dashoffset:0;stroke-linejoin:miter;stroke-miterlimit:4;fill:#fff;fill-rule:nonzero;opacity:1" vector-effect="non-scaling-stroke" transform="matrix(1 0 0 .77 212.91 488.431)" d="m0 0 3 1-1 4h-3z"/><path style="stroke:none;stroke-width:1;stroke-dasharray:none;stroke-linecap:butt;stroke-dashoffset:0;stroke-linejoin:miter;stroke-miterlimit:4;fill:#fff;fill-rule:nonzero;opacity:1" vector-effect="non-scaling-stroke" transform="matrix(1 0 0 .77 276.91 484.581)" d="m0 0 3 4-2 3-1-3h-2V1z"/><path style="stroke:none;stroke-width:1;stroke-dasharray:none;stroke-linecap:butt;stroke-dashoffset:0;stroke-linejoin:miter;stroke-miterlimit:4;fill:#fff;fill-rule:nonzero;opacity:1" vector-effect="non-scaling-stroke" transform="matrix(1 0 0 .77 306.91 479.961)" d="M0 0h8L7 3l-8-1z"/><path style="stroke:none;stroke-width:1;stroke-dasharray:none;stroke-linecap:butt;stroke-dashoffset:0;stroke-linejoin:miter;stroke-miterlimit:4;fill:#fff;fill-rule:nonzero;opacity:1" vector-effect="non-scaling-stroke" transform="matrix(1 0 0 .77 329.91 478.421)" d="M0 0h5L4 4l2 1-5-1z"/><path style="stroke:none;stroke-width:1;stroke-dasharray:none;stroke-linecap:butt;stroke-dashoffset:0;stroke-linejoin:miter;stroke-miterlimit:4;fill:#fff;fill-rule:nonzero;opacity:1" vector-effect="non-scaling-stroke" transform="matrix(1 0 0 .77 247.91 502.291)" d="m0 0 2 1v2l1.875.875C6 5 6 5 8 7L5 8 3 4H1z"/><g transform="matrix(1 0 0 .77 192.91 335.201)"/><g transform="matrix(1 0 0 .77 192.91 335.201)"/></svg>